<?xml version="1.0" encoding="UTF-8"?>
<svg width="700px" height="700px" viewBox="0 0 700 700" version="1.1" xmlns="http://www.w3.org/2000/svg">
    <title>Artboard</title>
    <defs>
        <filter x="-50%" y="-50%" width="200%" height="200%" filterUnits="objectBoundingBox" id="filter-1">
            <feGaussianBlur stdDeviation="1" in="SourceGraphic"></feGaussianBlur>
        </filter>
        <radialGradient cx="81.3999102%" cy="35.9947085%" fx="81.3999102%" fy="35.9947085%" r="154.794887%" id="radialGradient-2">
            <stop stop-color="#000000" stop-opacity="0" offset="0%"></stop>
            <stop stop-color="#000000" offset="100%"></stop>
        </radialGradient>
    </defs>
    <g id="Page-1" stroke="none" stroke-width="1" fill="none" fill-rule="evenodd">
        <path d="M351,700 C157.7,700 1,543.3 1,350 C1,156.7 157.7,0 351,0 C544.299,0 701,156.7 701,350 C701,543.3 544.299,700 351,700 Z" id="path3517" fill="#0070E0" fill-rule="nonzero"></path>
        <g id="Artboard">
            <g id="earth" transform="translate(47.000000, 0.000000)" fill-rule="nonzero" fill-opacity="0.905542346" fill="#00FF12">
                <g id="layer1">
                    <path d="M223.353,37.924 L233.107,35.708 L237.675,33.339 L243.504,31.978 L242.694,30.894 L239.152,30.759 L239.692,29.864 L245.095,29.066 L247.525,29.605 L248.497,28.522 L257.775,26.3 L259.149,24.762 L266.838,26.989 L272.88,26.239 L279.045,24.605 L287.123,25.617 L285.029,26.398 L288.542,26.977 L290.831,26.739 L293.68,24.787 L293.776,26.373 L292.646,25.555 L291.149,26.719 L296.103,26.247 L291.331,26.812 L302.401,27.528 L301.623,26.852 L305.634,26.076 L303.629,26.129 L305.317,25.361 L303.775,24.204 L307.643,24.552 L308.232,23.52 L311.657,24.812 L316.017,24.583 L317.632,25.93 L322.008,23.51 L325.83,27.111 L323.386,27.116 L325.069,28.058 L323.11,28.135 L323.625,29.541 L327.913,30.297 L330.2,32.071 L334.446,30.427 L339.344,31.761 L341.18,32.922 L339.758,33.389 L344.435,35.131 L349.112,35.134 L348.069,37.069 L349.684,36.731 L349.784,37.844 L352.19,38.569 L353.658,38.1 L351.61,37.394 L360.108,39.187 L362.809,38.955 L357.698,39.57 L343.755,39.342 L343.74,41.281 L342.91,40.047 L341.639,40.581 L342.738,43.917 L349.063,45.48 L346.531,45.866 L349.808,47.898 L346.43,47.417 L347.618,49.229 L352.841,49.404 L355.415,48.338 L357.798,49.704 L358.444,48.328 L358.735,49.336 L363.857,50.62 L362.208,50.806 L365.203,52.698 L366.623,52.67 L365.15,51.838 L375.732,56.138 L378.22,55.553 L378.074,56.716 L381.583,54.586 L389.359,60.525 L394.717,59.566 L395.752,56.248 L405.032,55.329 L404.22,56.865 L399.934,56.745 L402.795,57.476 L395.788,56.713 L397.656,58.596 L397.124,62.028 L398.899,63.007 L400.403,62.336 L401.837,64.549 L404.621,61.511 L405.467,64.253 L397.771,65.948 L401.01,65.635 L406.776,67.843 L409.986,66.327 L417.979,67.175 L415.487,64.409 L415.651,62.275 L418.345,61.599 L421.6,62.534 L421.549,60.841 L421.927,63.05 L416.342,63.614 L419.196,66.083 L424.591,66.167 L434.842,70.481 L435.265,74.651 L431.521,70.672 L421.925,67.516 L420.097,68.801 L409.732,68.107 L407.302,69.22 L399.932,68.003 L399.666,69.35 L400.813,71.762 L408.942,73.253 L412.539,75.361 L421.056,76.052 L420.348,74.369 L422.744,73.122 L427.83,74.926 L424.064,78.008 L424.033,77.169 L422.335,83.7 L424.278,84.869 L428.119,84.235 L429.139,86.069 L431.327,86.735 L427.922,87.083 L431.056,90.019 L431.489,92.781 L433.858,94.082 L433.855,96.39 L430.318,94.908 L429.157,93.305 L429.375,94.305 L433.301,97.508 L431.764,97.237 L435.568,103.639 L437.36,103.504 L437.411,105.411 L441.24,107.155 L441.459,109.685 L437.843,110.071 L435.991,106.651 L434.172,106.241 L430.427,109.821 L432.932,109.328 L445.822,114.549 L442.168,116.234 L444.592,119.829 L446.998,122.796 L452.536,124.019 L449.961,126.591 L450.959,127.915 L449.73,126.602 L447.218,128.215 L449.389,129.952 L452.544,128.651 L454.919,131.124 L449.336,133.391 L444.361,131.724 L442.149,129.351 L438.803,131.127 L438.435,129.535 L433.226,130.145 L443.246,122.092 L438.579,116.088 L432.201,116.01 L423.944,119.492 L422.67,121.691 L424.611,123.546 L422.068,121.507 L421.158,123.252 L419.326,122.41 L420.115,121.143 L418.232,121.876 L419.771,124.014 L417.35,124.336 L417.969,126.014 L414.502,125.678 L416.245,123.944 L415.05,121.96 L410.987,123.105 L412.607,125.79 L410.224,123.36 L408.698,123.952 L411.816,126.608 L411.883,127.657 L408.798,125.607 L412.288,130.182 L408.694,126.767 L407.012,127.888 L411.2,132.487 L407.635,133.615 L411.152,134.917 L408.879,135.041 L411.191,139.163 L408.08,136.264 L410.198,138.976 L408.307,137.5 L408.394,139.075 L411.078,139.795 L408.289,140.566 L411.6,143.986 L410.883,146.075 L413.088,144.663 L411.291,146.771 L414.223,148.592 L411.452,147.521 L411.479,149.173 L412.961,149.049 L411.774,150.398 L414.528,150.274 L413.87,153.443 L416.209,152.635 L414.141,155.691 L415.551,155.68 L416.928,159.388 L417.96,157.338 L416.896,160.255 L418.764,160.574 L417.541,160.868 L419.699,164.593 L420.685,162.985 L419.948,166.978 L421.011,165.487 L420.932,167.655 L422.739,168.035 L422.272,169.465 L420.568,168.556 L422.155,174.608 L424.08,173.711 L423.404,170.088 L425.527,173.506 L424.114,175.627 L422.644,174.572 L421.478,177.071 L424.125,179.332 L421.91,179.65 L424.418,180.216 L420.356,180.983 L423.595,180.616 L420.431,183.614 L424.172,184.583 L422.22,184.172 L422.886,185.423 L421.201,185.704 L422.592,185.947 L419.654,186.926 L420.954,188.205 L424.383,186.099 L421.032,188.25 L421.786,189.913 L424.016,189.346 L422.349,190.677 L423.981,189.996 L424.076,191.823 L426.358,189.642 L425.97,188.298 L428.146,188.707 L427.329,186.808 L428.605,187.817 L428.891,190.35 L426.704,189.565 L423.905,192.434 L425.705,192.428 L424.601,193.597 L426.307,194.41 L426.666,192.784 L426.706,195.342 L428.199,196.107 L427.906,194.438 L429.351,197.121 L430.349,192.011 L430.006,199.285 L431.932,199.95 L432.838,197.164 L433.114,200.433 L434.88,199.477 L434.904,201.017 L432.617,201.134 L434.611,203.305 L439.829,203.952 L441.883,201.552 L440.577,194.786 L442.687,193.715 L439.901,189.381 L447.15,195.712 L447.788,194.525 L449.584,197.057 L448.582,194.623 L450.759,197.852 L457.822,200.873 L457.939,203.003 L462.421,206.619 L465.263,204.119 L463.02,199.688 L465.66,198.018 L461.473,190.428 L456.448,186.513 L457.384,185.598 L455.333,186.196 L457.008,183.345 L455.477,181.398 L457.617,182.537 L456.804,179.199 L455.129,179.667 L455.29,176.616 L449.675,174.935 L448.018,175.937 L438.266,165.687 L440.001,165.966 L438.747,158.094 L436.846,154.249 L432.043,151.534 L433.363,151.312 L430.618,149.277 L432.454,149.129 L430.895,147.448 L433.377,144.865 L438.501,146.344 L444.095,161.194 L451.22,165.139 L454.875,169.223 L458.256,168.88 L458.307,167.279 L460.68,169.803 L463.327,156.1 L465.222,157.546 L469.054,155.81 L467.399,160.521 L469.081,162.268 L465.053,165.314 L464.25,170.974 L468.698,173.999 L470.014,172.53 L474.792,177.141 L474.975,179.702 L469.782,178.432 L469.274,180.912 L472.828,186.563 L480.219,192.651 L478.948,194.077 L476.526,189.697 L478.487,193.432 L478.106,195.375 L479.229,196.666 L479.977,195.466 L480.09,199.494 L479.197,196.678 L478.509,200.09 L474.864,199.59 L471.861,209.324 L473.275,211.541 L466.607,210.587 L463.782,216.702 L462.671,214.221 L460.708,216.305 L457.126,215.134 L454.083,210.712 L454.276,204.903 L451.424,205.042 L448.489,199.411 L446.515,205.603 L454.755,217.451 L455.055,216.261 L457.475,217.474 L457.135,219.124 L462.954,220.651 L458.869,220.933 L460.418,223.775 L457.811,223.025 L456.181,225.158 L458.318,226.371 L453.816,228.155 L453.545,230.671 L456.572,232.274 L455.977,234.661 L452.36,232.223 L453.83,238.533 L456.392,238.726 L453.679,241.706 L456.529,241.246 L450.591,248.202 L452.991,251.68 L450.625,258.968 L443.479,259.939 L448.441,264.907 L444.593,267.778 L442.266,266.279 L437.734,270.942 L440.47,271.409 L438.808,271.951 L440.947,274.242 L448.29,272.697 L452.969,277.278 L455.798,277.039 L457.067,280.674 L457.904,281.155 L461.864,293.728 L442.135,302.489 L439.049,301.706 L434.565,308.317 L438.781,311.328 L442.68,324.384 L442.473,333.167 L444.319,331.069 L444.325,334.88 L446.77,333.955 L445.89,334.451 L447.943,342.52 L456.196,337.432 L463.941,342.6 L467.259,336.359 L476.215,331.985 L477.059,326.419 L479.557,324.343 L478.616,319.885 L480.344,316.19 L477.637,314.957 L476.349,311.468 L477.139,302.097 L482.368,293.055 L478.889,288.477 L478.841,285.286 L480.453,282.34 L488.535,280.963 L491.916,268.261 L497.502,267.588 L505.145,273.582 L525.332,274.687 L530.556,279.217 L531.613,284.918 L533.067,284.288 L531.695,278.441 L532.572,275.825 L528.339,274.011 L527.174,269.657 L530.08,267.953 L532.935,269.131 L532.19,267 L521.354,266.854 L520.329,264.163 L516.358,266.771 L508.241,261.961 L502.771,261.47 L498.079,256.106 L500.278,251.011 L504.792,255.286 L504.587,251.204 L514.342,256.789 L517.003,255.082 L521.05,255.769 L518.68,256.713 L524.671,254.928 L528.991,256.116 L533.089,263.631 L541.431,267.004 L542.037,265.53 L541.891,267.653 L544.35,268.989 L549.713,264.054 L549.737,266.02 L545.36,268.827 L545.958,271.322 L550.723,274.718 L551.012,272.528 L553.882,274.617 L552.878,272.171 L555.338,272.379 L550.585,268.302 L552.766,266.71 L550.14,266.021 L550.723,263.772 L553.145,264.239 L551.512,261.652 L545.814,262.61 L546.424,260.415 L544.984,259.114 L546.466,258.81 L540.372,254.798 L540.499,253.083 L545.093,253.634 L543.179,252.256 L545.249,251.39 L541.757,250.394 L543.622,245.436 L548.105,242.582 L549.139,247.075 L548.157,239.143 L550.579,235.007 L543.134,232.155 L542.514,233.382 L540.414,225.102 L535.024,217.979 L536.317,218.806 L536.582,216.483 L532.651,212.277 L533.727,212.933 L533.06,210.662 L533.773,213.07 L532.848,209.055 L531.087,208.62 L532.833,209.028 L531.259,206.344 L531.471,201.806 L533.754,202.272 L532.151,204.305 L533.428,203.554 L533.832,204.877 L536.585,200.645 L538.044,201.709 L538.407,206.704 L539.092,204.573 L542.885,207.641 L544.399,206.829 L543.217,195.682 L542.302,199.135 L538.02,197.488 L542.38,199.214 L541.512,200.208 L538.608,199.332 L536.795,195.004 L538.507,197.302 L537.017,192.583 L537.367,181.526 L539.46,185.533 L538.512,187.744 L542.165,187.911 L540.941,187.907 L544.045,193.279 L543.937,196.519 L558.201,192.657 L562.065,195.111 L563.682,198.005 L564.581,203.401 L563.09,208.679 L559.797,212.991 L554.863,213.422 L553.082,218.414 L553.693,228.356 L550.039,233.52 L551.762,235.135 L553.176,233.6 L551.903,236.624 L552.972,237.868 L548.871,243.848 L549.522,247.741 L550.963,250.004 L552.27,247.136 L555.09,251.983 L556.65,251.65 L556.187,253.68 L554.411,252.701 L555.494,255.15 L558.441,253.586 L559.068,255.779 L561.685,255.847 L561.924,258.256 L563.591,254.727 L563.205,259.247 L564.414,255.164 L569.1,254.997 L570.079,252.539 L568.208,248.869 L569.082,247.309 L574.391,246.135 L575.371,241.719 L574.254,237.124 L576.092,236.101 L575.978,232.346 L579.83,239.125 L583.736,242.865 L591.697,262.758 L589.342,270.964 L587.593,269.301 L585.91,271.806 L584.724,281.659 L578.834,285.195 L574.835,290.256 L573.047,288.756 L568.77,292.84 L566.867,291.105 L562.642,293.694 L560.796,302.119 L564.369,308.917 L563.064,314.932 L558.21,314.902 L550.916,318.421 L546.723,314.828 L539.889,317.036 L536.672,320.212 L527.502,320.503 L525.842,318.929 L526.73,310.658 L522.01,307.549 L521.092,301.159 L520.283,304.608 L516.338,302.914 L511.824,309.944 L506.243,312.058 L503.767,316.871 L497.994,318.529 L488.906,326.873 L486.368,332.711 L483.047,335.252 L480.515,340.936 L476.989,342.46 L475.686,340.872 L469.3,345.435 L464.666,342.829 L463.023,344.38 L462.78,356.023 L454.683,368.813 L454.066,376.373 L456.983,383.693 L455.589,389.024 L450.925,397.026 L444.755,401.245 L442.824,409.879 L439.37,413.796 L438.879,423.149 L434.677,429.715 L435.579,428.436 L431.062,442.705 L431.244,448.333 L431.989,446.221 L436.54,450.467 L435.397,455.735 L439.346,464.091 L437.938,476.204 L433.342,482.84 L439.408,486.007 L439.744,488.791 L444.715,486.513 L440.633,489.16 L438.536,488.579 L438.768,493.42 L441.717,492.385 L438.785,494.323 L442.983,493.479 L441.267,495.329 L444.042,495.109 L443.617,496.64 L449.013,493.666 L446.023,495.645 L448.684,495.654 L446.284,498.08 L447.916,499.393 L449.077,498.041 L448.806,499.557 L450.799,498.101 L452.527,502.261 L457.686,502.855 L456.811,504.685 L459.152,504.852 L460.192,508.776 L461.997,508.031 L459.594,509.551 L464.36,511.424 L464.153,513.49 L471.263,514.135 L485.096,519.133 L491.604,518.778 L498.342,512.732 L508.771,506.72 L518.823,504.415 L533.859,489.162 L544.724,480.332 L542.985,482.584 L547.508,480.022 L550.506,481.179 L551.712,479.325 L550.596,481.362 L552.616,480.565 L551.072,481.836 L551.939,482.196 L553.235,480.567 L552.031,483.311 L554.982,485.743 L558.006,483.56 L557.987,482.171 L558.676,482.995 L558.199,481.744 L559.246,482.534 L559.407,480.554 L560.605,481.23 L564.41,478.058 L564.091,476.267 L565.549,477.512 L566.558,475.412 L568.372,478.193 L570.355,475.906 L570.864,476.986 L569.717,477.846 L571.626,480.082 L569.459,491.05 L570.864,490.457 L570.776,493.505 L569.368,494.28 L572.057,493.849 L570.142,495.875 L569.54,494.881 L568.643,500.547 L566.919,501.607 L570.373,506.897 L577.941,509.743 L579.046,514.063 L580.777,513.75 L579.23,515.558 L581.943,521.846 L579.986,526.065 L581.453,531.436 L579.508,537.123 L574.204,545.345 L568.401,557.183 L565.609,565.102 L567.168,573.452 L560.81,584.697 L557.125,591.71 L555.14,593.78 L553.024,595.942 L550.483,598.488 L552.172,596.801 L553.535,595.421 L562.613,585.836 L567.958,579.838 L575.026,571.458 L587.672,555.008 L594.818,544.737 L599.252,537.947 L605.887,527.093 L605.174,528.302 L605.232,528.204 L614.804,510.929 L618.689,503.192 L620.286,499.869 L621.94,496.325 L621.979,496.24 L626.014,487.126 L628.549,481.014 L634.948,463.884 L638.415,453.258 L640.403,446.583 L640.897,444.846 L642.315,439.654 L643.345,435.665 L643.09,436.309 L644.259,430.184 L644.875,427.28 L644.587,428.329 L645.608,423.262 L645.379,421.839 L646.647,413.899 L648.476,401.111 L649.4,395.817 L649.266,395.108 L649.774,393.139 L651.754,371.903 L652.828,354.28 L652.702,337.043 L649.234,302.916 L648.291,298.519 L648.087,295.947 L648.162,297.569 L646.465,290.069 L646.326,291.268 L647.142,299.509 L646.997,307.992 L647.259,314.031 L646.791,315.619 L646.725,322.644 L644.382,322.299 L644.023,325.122 L644.071,319.706 L643.41,317.617 L638.656,315.661 L637.22,317.809 L635.995,316.435 L636.479,318.981 L630.13,309.325 L627.206,309.668 L622.049,299.773 L622.631,299.73 L619.91,296.571 L616.261,296.763 L613.669,292.807 L614.169,291.82 L611.788,291.268 L600.844,280.978 L596.203,278.893 L593.207,274.888 L598.354,278.852 L602.171,279.356 L598.157,268.535 L601.643,276.562 L602.665,274.594 L612.884,280.868 L615.155,283.981 L617.788,283.093 L621.773,286.998 L624.767,292.895 L629.199,293.375 L636.442,300.149 L638.88,307.536 L643.238,316.168 L644.077,309.803 L643.556,304.687 L643.44,289.913 L642.604,284.752 L640.833,269.57 L639.363,264.782 L637.407,252.788 L635.704,247.705 L634.966,243.836 L633.09,238.624 L631.826,233.702 L629.305,228.448 L628.242,225.617 L628.395,225.271 L623.259,213.14 L621.165,211.612 L621.386,215.54 L620.393,215.286 L617.662,211.891 L615.576,208.125 L622.613,225.786 L622.913,230.835 L623.743,233.782 L622.912,235.057 L618.675,227.266 L618.563,229.047 L621.902,235.166 L618.599,232.518 L616.84,229.228 L614.091,229.798 L608.887,225.085 L608.744,226.355 L608.319,223.983 L606.685,222.607 L607.008,219.711 L605.86,218.036 L607.085,217.468 L606.549,214.908 L613.15,219.598 L613.753,217.14 L616.005,216.469 L616.131,213.565 L613.172,204.182 L616.58,207.599 L614.523,195.129 L606.653,176.62 L608.298,178.888 L607.407,176.931 L609.169,179.553 L607.556,176.395 L608.657,178.223 L606.939,175.155 L608.484,177.856 L608.619,177.781 L605.932,173.016 L607.415,175.567 L610.273,180.704 L610.181,180.468 L606.572,174.108 L603.646,169.169 L602.553,167.37 L604.034,169.815 L604.684,170.9 L603.867,169.536 L605.385,172.081 L605.935,173.015 L608.535,177.526 L615.171,189.807 L621.135,201.965 L624.413,209.2 L624.489,209.373 L623.091,206.228 L621.506,202.762 L619.488,198.487 L619.533,198.58 L617.262,193.935 L616.169,191.761 L613.399,186.413 L608.681,177.785 L605.046,171.508 L603.192,168.418 L601.748,166.058 L599.653,162.711 L596.85,158.357 L595.62,156.49 L588.343,145.947 L583.341,139.152 L578.679,133.113 L574.815,128.307 L573.404,126.594 L570.177,122.759 L568.083,120.329 L569.487,121.953 L566.976,119.063 L567.447,119.6 L565.97,117.923 L566.518,118.543 L564.736,116.537 L564.886,116.705 L562.845,114.443 L563.911,115.62 L560.577,111.975 L562.222,113.76 L561.218,112.668 L559.696,111.029 L557.738,108.95 L562.52,114.087 L560.499,111.89 L562.133,113.662 L560.971,112.399 L562.062,113.584 L563.426,115.082 L563.963,115.677 L561.931,113.442 L566.518,118.543 L572.409,125.401 L570.59,123.244 L572.453,125.453 L571.07,123.81 L571.464,124.275 L569.871,122.4 L570.356,122.968 L568.117,120.367 L566.163,118.138 L565.402,117.281 L565.646,117.555 L563.54,115.206 L561.3,112.753 L563.513,115.176 L562.425,113.979 L567.929,120.15 L571.507,124.324 L569.92,122.457 L572.663,125.703 L576.04,129.81 L575.922,129.665 L580.027,134.83 L582.079,137.488 L580.558,135.513 L588.048,145.534 L586.758,143.755 L589.737,147.903 L595.686,156.588 L598.791,161.355 L599.987,163.239 L598.199,160.434 L598.573,161.017 L595.471,156.266 L590.219,148.588 L588.242,145.809 L586.279,143.104 L587.32,144.531 L581.723,137.027 L583.028,138.738 L579.732,134.454 L571.98,124.889 L568.4,120.695 L565.539,117.437 L568.718,121.061 L566.555,118.583 L566.61,118.645 L570.138,122.714 L568.259,120.532 L570.438,123.065 L569.236,121.661 L569.31,121.747 L574.011,127.328 L573.279,126.443 L569.426,121.883 L567.928,120.151 L568.233,120.502 L566.637,118.677 L567.102,119.206 L566.242,118.228 L565.844,117.778 L565.671,117.583 L565.141,116.988 L564.142,115.873 L563.881,115.584 L556.943,108.114 L551.776,102.823 L551.179,102.226 L542.183,93.566 L539.99,91.546 L539.859,91.427 L535.424,87.45 L530.951,83.574 L527.827,80.944 L526.013,79.445 L525.711,79.197 L524.796,78.451 L523.104,77.083 L519.949,74.58 L518.066,73.115 L516.431,71.858 L517.027,72.314 L514.485,70.382 L514.75,70.581 L517.724,72.849 L520,74.62 L519.107,73.923 L514.055,70.06 L514.811,70.629 L510.609,67.506 L509.328,66.574 L508.117,65.7 L506.836,64.785 L506.162,64.306 L503.289,62.294 L504.741,63.306 L503.06,62.137 L503.22,62.247 L499.639,59.801 L501.162,60.834 L500.153,60.148 L497.504,58.373 L498.564,59.078 L495.977,57.365 L496.475,57.692 L493.124,55.514 L491.167,54.266 L490.906,54.101 L488.418,52.543 L486.597,51.421 L487.146,51.758 L483.38,49.478 L483.063,49.288 L480.879,47.998 L479.427,47.152 L478.61,46.68 L477.151,45.845 L476.589,45.526 L474.392,44.291 L474.892,44.57 L471.803,42.862 L469.367,41.544 L469.997,41.882 L469.302,41.508 L468.237,40.94 L467.761,40.688 L460.097,36.75 L459.682,36.543 L456.514,34.989 L455.015,34.267 L452.982,33.303 L452.628,33.137 L451.056,32.404 L449.205,31.553 L451.1,32.424 L447.408,30.74 L447.372,30.723 L450.773,32.273 L442.854,28.733 L441.281,28.057 L442.649,28.644 L438.999,27.093 L437.514,26.476 L431.225,23.952 L432.621,24.5 L431.175,23.932 L423.675,21.105 L423.149,20.914 L421.723,20.401 L419.341,19.56 L414.058,17.763 L413.044,17.429 L410.198,16.509 L414.2,17.81 L421.961,20.486 L418.601,19.302 L421.623,20.365 L418.734,19.348 L414.117,17.782 L401.206,13.777 L397.319,12.677 L398.342,12.962 L406.073,15.223 L403.79,14.535 L409.174,16.184 L396.262,12.387 L391.626,11.154 L396.484,12.448 L396.19,12.368 L398.264,12.941 L401.291,13.802 L399.793,13.372 L401.306,13.806 L399.993,13.429 L398.993,13.146 L397.946,12.852 L401.943,13.992 L401.473,13.855 L403.868,14.559 L404.946,14.882 L403.351,14.405 L406.093,15.229 L405.089,14.925 L411.84,17.036 L413.416,17.551 L414.356,17.862 L415.339,18.19 L411.252,16.847 L412.756,17.335 L410.074,16.47 L411.016,16.771 L409.057,16.148 L408.808,16.07 L406.099,15.232 L405.926,15.179 L399.805,13.376 L394.601,11.938 L388.711,10.414 L388.656,10.4 L385.798,9.7 L374.631,7.208 L369.998,6.286 L364.92,5.349 L363.182,5.046 L362.309,4.898 L357.092,4.057 L357.242,4.08 L348.45,2.84 L328.217,0.844 L310.445,0.064 L302.293,0.036 L298.191,0.302 L301.673,0.541 L299.56,0.514 L298.785,0.625 L304.906,0.991 L308.789,1.022 L309.084,0.896 L313.735,0.817 L312.049,1.102 L315.593,0.969 L315.174,1.354 L319.046,1.475 L320.725,1.737 L309.972,2.259 L296.287,4.614 L286.329,5.294 L285.073,5.089 L283.838,5.503 L276.185,5.932 L275.093,6.601 L265.771,7.182 L269.377,6.578 L268.364,6.431 L256.992,8.506 L258.059,8.678 L260.561,8.216 L260.8,8.654 L256.079,11.573 L246.634,14.229 L247.013,13.099 L246.397,12.809 L244.786,13.336 L244.579,12.761 L240.706,15.281 L238.189,15.961 L240.196,16.766 L237.091,17.923 L234.823,18.243 L237.358,17.164 L235.155,15.551 L239.42,13.822 L245.647,9.441 L249.914,8.392 L251.021,7.164 L250.359,6.145 L240.598,6.018 L235.901,7.431 L237.433,7.422 L231.921,8.705 L233.934,8.861 L227.838,10.788 L230.568,11.197 L226.754,12.31 L231.16,12.26 L230.005,13 L234.788,11.998 L233.814,14.764 L231.67,15.522 L229.994,15.572 L227.621,17.296 L226.062,16.82 L225.496,17.892 L220.054,20.077 L215.469,20.661 L216.183,21.202 L212.472,25.066 L206.614,29.379 L201.218,31.513 L201.704,32.293 L210.503,31.883 L209.566,31.698 L213.048,31.375 L215.091,29.681 L215.698,29.988 L217.956,29.01 L209.123,33.519 L209.385,35.349 L212.473,35.882 L210.902,36.88 L207.582,36.194 L204.205,38.389 L199.269,39.145 L194.248,41.078 L194.813,41.603 L193.005,41.668 L192.024,42.872 L195.197,41.806 L194.467,43.267 L196.211,43.497 L198.668,42.497 L194.387,44.751 L196.567,44.429 L194.198,45.406 L194.997,46.707 L201.589,44.736 L205.473,42.631 L206.858,41.492 L202.064,41.656 L210.329,41.278 L223.329,37.933 L223.353,37.924 M179.767,677.209 L181.122,677.721 L181.012,677.68 L185.812,679.442 L186.735,679.772 L184.759,679.062 L185.031,679.161 L182.937,678.396 L187.145,679.917 L188.196,680.287 L193.801,682.199 L196.924,683.22 L194.364,682.387 L192.142,681.645 L194.376,682.39 L192.315,681.703 L195.325,682.701 L193.523,682.107 L195.346,682.708 L196.781,683.174 L196.871,683.202 L201.903,684.778 L200.724,684.416 L196.385,683.046 L191.362,681.367 L192.361,681.612 L197.242,683.09 L195.665,682.212 L198.597,682.784 L195.294,681.649 L197.45,682.215 L199.299,682.937 L200.945,683.268 L199.305,682.497 L197.007,682.045 L193.978,680.932 L191.855,679.432 L197.714,681.458 L203.278,682.797 L201.162,680.875 L202.63,681.338 L200.271,680.133 L206.035,681.839 L217.106,683.926 L220.961,684.245 L223.701,683.312 L222.832,682.419 L219.386,681.245 L219.542,680.339 L212.049,677.472 L211.211,675.149 L212.178,676.73 L215.529,678.299 L224.13,680.682 L233.624,681.932 L240.03,680.274 L240.744,678.076 L245.885,676.033 L244.587,675.123 L248.664,676.561 L241.962,678.957 L247.893,677.806 L252.573,674.604 L257.159,673.424 L258.149,670.342 L255.933,668.123 L258.156,666.516 L255.94,665.802 L258.86,666.323 L262.087,664.589 L268.439,663.031 L273.793,663.187 L279.201,661.081 L284.018,661.668 L286.628,660.655 L286.849,661.508 L292.675,661.715 L292.932,660.419 L298.422,659.007 L297.91,657.553 L305.098,651.893 L305.744,648.015 L309.019,645.786 L310.872,628.868 L311.802,627.93 L313.093,629.497 L315.506,628.166 L334.542,610.681 L335.505,605.694 L332.785,598.793 L330.641,597.315 L321.332,597.098 L313.292,591.742 L303.859,587.971 L290.206,587.897 L283.124,585.299 L274.648,589.5 L275.046,586.239 L277.407,585.069 L273.593,585.372 L276.657,583.738 L274.518,580.723 L272.054,582.579 L271.513,580.11 L270.33,580.927 L270.973,579.956 L269.276,580.49 L267.494,578.6 L266.526,579.726 L266.222,577.79 L265.309,578.763 L259.582,575.932 L259.123,576.972 L254.967,575.826 L252.313,579.275 L254.898,579.917 L252.608,580.421 L251.358,578.872 L246.365,582.852 L247.567,580.006 L240.597,580.272 L249.877,579.224 L252.947,573.948 L241.181,571.769 L238.422,575.711 L238.212,573.52 L235.736,575.265 L235.489,573.007 L233.027,574.907 L235.349,570.971 L243.845,565.967 L242.402,565.748 L243.653,563.491 L238.658,561.026 L235.597,550.13 L234.136,549.062 L233.454,550.797 L229.769,545.87 L218.773,539.492 L201.363,536.595 L194.654,529.824 L192.535,531.982 L193.965,527.394 L190.889,523.484 L184.364,518.409 L180.676,517.796 L181.083,513.421 L176.869,509.893 L172.917,509.32 L170.094,505.584 L175.927,505.132 L162.671,501.93 L165.983,503.817 L158.057,503.815 L151.951,498.752 L141.744,496.275 L140.715,492.125 L134.453,488.32 L132.85,483.719 L131.377,486.295 L133.653,486.804 L133.569,488.233 L131.844,486.825 L123.899,488.016 L126.192,494.77 L125.737,496.77 L122.325,496.821 L120.571,492.027 L123.903,488.518 L122.466,483.272 L127.147,482.39 L124.591,479.095 L115.702,481.951 L111.395,479.834 L110.504,481.313 L107.78,479.493 L105.536,480.166 L102.94,482.592 L102.924,486.367 L96.01,487.919 L96.476,491.575 L91.842,482.86 L86.933,477.923 L83.921,476.056 L76.709,476.516 L73.278,472.498 L73.595,474.017 L71.587,472.554 L66.09,456.513 L71.868,442.548 L72.048,437.211 L65.991,429.02 L53.001,422.047 L50.187,418.722 L54.356,415.181 L56.768,408.184 L55.623,407.214 L57.654,405.653 L57.516,409.766 L61.219,403.51 L60.065,402.192 L66.394,395.886 L61.692,390.729 L52.747,387.841 L48.402,395.479 L43.944,397.883 L41.495,394.323 L33.376,391.33 L31.843,385.595 L29.639,383.55 L29.616,360.418 L30.293,357.369 L34.353,347.568 L36.116,343.982 L37.665,344.326 L36.418,346.075 L39.648,342.366 L41.829,334.855 L40.825,333.7 L42.039,334.56 L44.667,330.874 L47.66,331.76 L47.564,329.572 L49.458,331.878 L48.321,332.045 L53.031,332.17 L55.018,329.191 L56.234,331.462 L54.82,331.638 L58.48,332.563 L59.18,330.882 L58.536,332.507 L62.971,337.474 L65.302,337.225 L66.78,343.747 L68.78,343.456 L69.424,345.435 L70.132,342.947 L71.393,344.547 L71.341,348.45 L73.382,348.126 L71.786,344.259 L74.154,343.746 L70.924,338.98 L78.97,344.292 L80.519,342.143 L80.39,344.855 L79.142,345.039 L83.586,345.473 L82.418,346.503 L86.325,348.118 L84.942,347.904 L88.182,350.607 L87.609,354.672 L92.947,354.831 L94.495,357.246 L96.434,365.491 L93.563,370.455 L95.494,371.094 L93.436,373.003 L93.722,376.86 L95.283,377.364 L94.441,383.847 L96.748,387.402 L95.715,389.712 L98.05,390.675 L97.632,391.822 L103.067,382.83 L105.247,354.944 L111.022,351.426 L111.007,349.524 L111.31,351.317 L121.773,346.771 L133.905,345.319 L131.554,343.431 L134.146,342.932 L132.501,340.672 L135.533,343.165 L137.873,342.272 L138.115,340.068 L136.689,341.567 L137.316,339.577 L134.488,338.633 L137.365,337.555 L138.53,339.619 L139.273,335.653 L138.95,341.767 L139.548,334.434 L136.37,330.792 L138.282,332.721 L137.701,329.494 L138.256,331.676 L139.752,330.277 L138.25,326.729 L139.604,329.893 L140.718,328.531 L137.51,323.942 L138.628,322.352 L140.71,327.547 L142.306,320.104 L145.819,319.89 L142.332,322.856 L143.233,329.135 L140.162,333.415 L146.485,327.729 L147.551,319.405 L148.393,325.05 L153.181,321.689 L154.076,317.152 L157.958,315.289 L166.806,316.834 L168.08,314.317 L168.128,316.737 L173.408,317.477 L173.811,315.055 L172.036,316.561 L170.591,311.684 L176.522,305.149 L178.41,305.68 L179.103,303.675 L180.989,305.384 L183.98,301.691 L183.248,303.742 L186.037,302.928 L186.235,304.642 L191.48,303.273 L191.369,300.603 L193.844,302.484 L203.584,300.213 L200.23,302.725 L206.421,304.315 L202.933,305.602 L201.99,303.204 L194.126,306.161 L192.585,310.148 L194.733,313.054 L201.363,307.921 L203.745,309.459 L204.196,307.715 L214.353,307.485 L215.966,307.058 L213.085,302.808 L207.396,302.391 L202.946,297.269 L204.027,292.759 L201.675,292.078 L205.372,288.519 L201.767,288.724 L201.777,286.759 L198.394,285.192 L204.143,286.841 L208.344,285.508 L208.612,281.199 L203.142,278.922 L194.754,279.813 L179.936,286.211 L186.71,282.544 L187.523,279.672 L199.084,276.898 L204.325,272.544 L227.821,279.042 L233.813,274.219 L240.341,274.57 L245.83,271.543 L244.305,269.059 L246.53,269.498 L243.481,267.968 L246.229,268.541 L245.024,266.869 L247.089,264.191 L245.331,261.11 L241.73,262.615 L243.325,259.802 L240.196,257.35 L229.721,261.046 L239.482,257.262 L235.072,257.45 L243.562,255.96 L240.94,254.403 L242.044,253.529 L238.447,253.385 L238.798,251.469 L237.248,252.253 L238.384,250.86 L235.116,253.131 L237.527,251.161 L235.562,251.019 L236.637,249.878 L233.028,251.153 L235.634,246.949 L234.109,247.978 L234.818,246.542 L231.397,244.758 L233.251,243.642 L231.027,243.061 L232.538,243.105 L230.878,241.52 L232.799,241.604 L230.45,239.667 L232.884,241.14 L234.747,238.68 L231.913,235.576 L234.134,235.286 L232.344,233.01 L233.513,231.839 L230.406,232.237 L233.805,230.052 L230.328,230.246 L233.383,228.598 L233.275,226.421 L230.572,225.878 L232.939,225.461 L230.928,219.857 L232.333,218.923 L231.289,217.849 L227.977,220.671 L228.625,223.083 L226.305,223.067 L227.018,224.665 L224.312,225.226 L223.395,228.305 L223.573,224.767 L217.891,228.114 L218.329,224.709 L214.979,227.189 L217.859,223.32 L212.583,221.444 L214.44,220.353 L214.612,221.993 L216.777,219.555 L215.354,219.047 L217.158,215.667 L214.318,214.103 L217.698,215.21 L220.608,210.064 L218.884,211.102 L215.466,207.575 L216.93,205.239 L215.041,204.754 L214.285,198.692 L211.178,199.731 L206.044,194.263 L203.245,195.017 L202.476,199.388 L198.287,202.251 L200.159,202.812 L198.343,207.183 L190.481,212.356 L192.438,217.72 L188.645,226.848 L182.273,231.106 L174.43,231.449 L174.97,234.919 L170.831,246.019 L167.539,247.54 L166.316,250.958 L166.459,247.656 L163.532,249.768 L161.409,247.658 L162.922,245.496 L161.968,236.246 L169.33,225.001 L162.365,220.113 L157.552,201.075 L151.783,199.584 L154.337,198.249 L158.596,190.786 L156.892,188.875 L155.169,190.467 L156.643,186.427 L163.304,180.496 L171.173,177.572 L171.465,176.075 L177.211,176.029 L177.412,174.101 L178.906,175.786 L181.825,175.202 L182.202,171.45 L180.234,171.135 L181.615,170.494 L179.583,167.392 L181.122,166.363 L183,173.93 L187.177,171.731 L190.366,174.218 L196.543,171.329 L193.161,163.047 L195.196,164.126 L196.525,170.024 L202.476,168.085 L202.473,165.386 L206.006,170.449 L206.638,165.549 L208.827,166.888 L207.598,170.042 L215.622,167.281 L216.86,161.454 L219.963,161.911 L219.547,160.082 L221.926,159.353 L220.149,156.076 L221.89,156.026 L217.987,152.516 L214.662,158.147 L213.277,157.19 L206.14,162.248 L203.613,162.122 L210.109,153.731 L209.919,151.234 L204.007,154.531 L207.533,148.538 L209.442,149.293 L207.136,145.671 L210.32,144.098 L211.133,145.224 L215.935,135.406 L208.017,137.432 L208.453,138.726 L203.882,141.369 L205.105,146.364 L203.679,145.55 L200.582,147.315 L202.817,147.221 L201.303,149.32 L196.277,148.934 L192.328,152.582 L192.215,150.001 L196.863,147.531 L194.482,147.686 L196.343,146.873 L196.08,145.047 L193.92,143.758 L192.325,146.281 L193.542,147.23 L191.365,148.707 L192.638,144.968 L190.234,146.085 L186.293,141.862 L187.581,138.62 L185.966,136.512 L188.966,132.402 L183.153,131.047 L183.685,133.047 L187.541,134.105 L181.227,133.634 L178.786,137.03 L177.112,138.032 L177.213,136.581 L174.546,139.367 L177.053,135.16 L178.711,135.271 L180.823,130.141 L177.614,128.591 L176.216,123.605 L178.243,122.354 L180.205,123.693 L182.146,120.922 L181.076,118.03 L184.454,109.304 L181.083,106.909 L185.984,104.997 L180.734,105.452 L187.679,99.694 L185.218,101.223 L180.33,97.953 L185.761,98.08 L180.794,94.907 L180.318,93.425 L182.994,92.396 L180.429,91 L177.064,92.739 L188.141,80.322 L194.28,70.139 L196.385,68.391 L197.692,68.762 L198.837,66.484 L201.473,65.457 L200.283,64.363 L202.053,64.894 L204.022,63.885 L202.539,62.285 L203.956,60.187 L201.717,59.84 L203.484,59.602 L203.837,57.471 L199.907,54.661 L202.259,51.982 L200.614,51.018 L193.772,53.972 L190.722,54.448 L187.696,57.07 L185.113,57.266 L183.192,58.984 L184.833,57.138 L188.4,56 L182.632,57.806 L185.935,54.219 L189.233,53.45 L190.602,48.504 L185.543,51.081 L186.533,49.867 L182.779,50.791 L177.392,55.024 L178.531,55.052 L176.519,55.564 L177.489,56.995 L175.588,58.388 L175.188,57.359 L171.503,58.659 L170.355,58.138 L172.219,56.386 L171.224,55.02 L173.886,53.336 L169.077,51.09 L166.347,52.045 L165.25,53.238 L164.86,52.766 L161.153,55.538 L162.189,53.889 L158.423,54.767 L156.616,57.789 L150.803,59.535 L149.737,58.778 L148.775,61.597 L143.385,64.701 L146.294,64.708 L143.33,65.77 L143.327,67.83 L141.377,67.142 L136.984,68.257 L136.369,63.902 L133.932,64.562 L137.225,61.516 L135.533,59.595 L135.708,60.116 L134.609,60.981 L136.244,60.481 L134.136,61.961 L135.636,62.193 L133.875,63.101 L133.562,65.314 L131.909,66.032 L135.79,71.303 L135.482,73.583 L137.669,74.602 L139.586,72.736 L141.294,72.411 L146.954,76.783 L146.258,79.152 L145.423,77.886 L142.563,80.271 L145.153,77.458 L144.643,75.968 L140.421,76.17 L139.521,77.86 L137.327,77.078 L137.482,80.251 L139.043,79.899 L137.6,80.568 L139.581,80.245 L137.72,82.315 L139.72,82.607 L142.213,80.758 L143.782,81.967 L141.626,82.234 L142.98,82.478 L141.416,83.074 L141.842,84.688 L141.041,84.208 L140.039,85.575 L139.83,84.649 L139.883,85.628 L138.053,86.27 L137.215,88.262 L134.516,90.078 L133.189,95.319 L130.232,98.202 L131.707,99.112 L130.094,100.784 L129.018,100.421 L131.36,99.247 L129.176,99.364 L120.877,108.307 L121.548,109.27 L125.453,105.83 L123.514,108.105 L125.144,107.558 L121.487,109.521 L120.508,111.524 L127.038,108.38 L121.212,111.826 L120.062,113.555 L121.711,113.698 L119.318,114.055 L118.107,116.418 L117.708,115.688 L116.167,117.783 L117.435,115.662 L115.484,117.762 L114.689,117.078 L109.552,123.854 L106.355,123.956 L108.835,125.201 L107.066,126.808 L102.128,129.03 L104.902,129.188 L108.027,128.006 L103.622,129.791 L103.147,131.197 L101.531,130.301 L99.784,132.286 L101.504,130.302 L100.09,130.975 L99.378,133.501 L98.032,132.972 L95.199,136.437 L98.322,136.129 L96.097,137.212 L95.886,138.886 L96.07,136.708 L92.236,141.772 L90.008,141.703 L91.186,141.95 L89.617,143.267 L92.035,143.947 L87.8,144.341 L86.123,145.958 L87.245,146.344 L85.437,146.13 L85.704,147.806 L84.679,146.606 L85.048,149.279 L84.015,147.689 L83.983,151.196 L83.42,150.536 L82.784,151.919 L84.393,152.663 L82.462,151.933 L81.632,154.079 L83.113,153.702 L81.795,154.266 L81.848,155.525 L84.306,154.64 L81.371,155.954 L82.493,157.205 L80.001,157.66 L78.955,159.913 L81.08,159.556 L79.09,161.906 L78.012,161.428 L79.2,162.841 L76.096,165.163 L75.222,167.793 L69.764,172.923 L67.337,172.689 L69.625,172.133 L71.495,170.325 L68.577,170.941 L72.332,169.22 L72.528,163.278 L66.215,169.737 L66.572,170.562 L63.352,172.27 L63.538,174.137 L63.202,172.589 L48.514,183.308 L43.053,189.972 L38.897,192.748 L33.33,200.663 L30.223,206.485 L30.943,208.569 L28.896,211.736 L29.866,208.898 L27.652,211.586 L21.587,225.612 L19.606,228.042 L19.74,237 L18.323,243.905 L9.559,265.179 L8.161,276.566 L6.263,278.402 L6.06,280.617 L4.745,276.645 L4.052,286.096 L5.49,286.357 L4.63,293.749 L1.562,299.981 L1.9,312.248 L0.995,316.556 L2.751,316.939 L4.016,311.527 L3.112,307.209 L7.111,294.353 L8.271,284.338 L9.935,280.653 L11.857,267.74 L16.988,257.981 L17.558,267.002 L12.489,280.397 L11.447,288.751 L12.341,291.051 L10.76,293.724 L10.855,303.242 L8.746,305.144 L9.966,312.59 L9.062,314.803 L9.479,330.15 L8.332,339.761 L6.119,342.018 L6.449,343.929 L5.048,343.283 L4.739,345.742 L6.613,361.023 L10.167,367.958 L11.479,374.339 L22.75,397.068 L30.911,401.518 L38.887,421.871 L48.876,434.222 L48.006,432.957 L53.385,435.897 L53.285,438.723 L51.705,437.706 L58.286,452.852 L56.968,452.931 L58.092,454.332 L57.36,458.74 L59.481,462.066 L60.735,461.348 L59.281,457.967 L61.355,460.969 L65.538,468.702 L65.386,471.882 L66.634,472.935 L66.405,470.85 L68.122,475.737 L69.07,474.718 L73.287,477.79 L74.112,480.966 L76.314,481.109 L76.7,485.1 L78.788,486.071 L80.997,485.805 L79.161,480.992 L86.067,480.319 L88.806,485.467 L90.567,485.947 L88.67,487.66 L93.324,497.18 L91.362,508.265 L93.747,510.869 L93.151,511.989 L89.874,515.19 L86.023,514.332 L86.083,517.643 L83.673,517.03 L84.119,520.007 L78.624,518.466 L79.271,521.673 L76.7,522.903 L77.757,524.766 L74.831,524.922 L75.039,530.813 L78.13,534.329 L79.769,532.891 L80.596,535.027 L79.396,537.813 L73.849,538.635 L76.18,545.769 L74.935,546.405 L80.675,552.71 L86.072,561.382 L94.31,577.15 L102.905,588.718 L102.401,590.218 L105.371,594.104 L109.774,598.583 L129.509,612.891 L136.448,619.062 L138.955,624.588 L140.831,629.251 L140.481,634.457 L143.731,640.112 L143.829,647.506 L146.492,650.362 L145.61,651.201 L151.213,657.996 L151.36,661.978 L149.651,661.444 L156.026,665.724 L156.463,666.739 L159.529,668.28 L158.873,668.064 L161.367,669.016 L163.047,669.757 L163.767,669.969 L162.592,669.694 L165.2,670.86 L165.425,671.061 L163.607,670.247 L165.634,671.179 L164.156,670.54 L165.254,671.217 L167.483,672.204 L166.209,671.709 L169.754,673.212 L167.809,672.414 L170.981,673.735 L168.483,672.698 L168.921,672.882 L170.193,673.411 L170.287,673.45 L168.625,672.758 L166.61,671.905 L168.189,672.574 L166.922,672.038 L167.137,672.13 L166.392,671.813 L164.817,671.135 L163.665,670.633 L165.912,671.607 L165.552,671.453 L163.531,670.574 L165.124,671.268 L163.863,670.719 L165.634,671.487 L166.459,671.841 L168.648,672.768 L170.582,673.572 L168.914,672.88 L171.171,673.816 L168.617,672.756 L172.05,674.175 L174.569,675.189 L172.768,674.466 L174.451,675.142 L169.422,673.092 L173.011,674.564 L171.341,673.885 L172.798,674.478 L172.499,674.357 L173.538,674.776 L175.68,675.629 L173.178,674.631 L175.666,675.623 L172.582,674.391 L175.398,675.517 L175.683,675.63 L176.803,676.068 L177.973,676.523 L175.055,675.38 L177.28,676.253 L176.829,676.077 L179.059,676.938 L178.68,676.793 L179.816,677.226 L178.751,676.82 L181.596,677.896 L178.448,676.704 L179.89,677.255 L179.487,677.102 L182.047,678.065 L180.999,677.673 L181.162,677.735 L180.684,677.555 L180.454,677.468 L177.848,676.472 L178.491,676.72 L181.112,677.715 L179.772,677.209 L179.767,677.209 M289.66,229.943 L291.581,227.983 L294.437,229.713 L291.339,226.827 L295.377,227.024 L293.492,225.438 L296.007,224.132 L293.3,223.646 L296.209,223.969 L294.475,222.536 L296.99,221.696 L295.049,221.058 L297.534,220.521 L295.695,220.108 L297.946,218.819 L295.55,215.842 L297.917,216.673 L295.174,214.517 L299.027,214.208 L298.188,211.781 L300.37,212.911 L298.735,210.579 L300.869,211.572 L299.633,210.485 L301.971,209.988 L299.93,208.403 L302.619,209.396 L302.435,207.04 L299.833,206.205 L303.083,205.725 L301.087,201.313 L303.434,202.17 L304.174,198.962 L308.553,198.64 L309.198,194.214 L310.976,194.765 L309.477,197.236 L311.022,197.87 L310.789,195.92 L311.5,197.239 L314.905,195.656 L314.032,193.907 L316.762,194.441 L319.656,186.801 L322.18,185.215 L320.432,181.531 L323.025,184.352 L326.463,183.688 L326.357,182.083 L327.842,183.092 L333.966,179.79 L340.609,170.766 L333.803,170.306 L330.169,173.396 L327.547,172.924 L331.267,170.437 L325.832,171.251 L327.624,167.313 L330.096,168.115 L332.257,165.971 L326.163,165.443 L328.064,164.333 L325.802,163.101 L333.641,165.345 L337.49,169.436 L338.513,167.01 L339.339,169.027 L341.035,168.372 L338.48,166.011 L338.772,163.565 L337.308,164.021 L338.032,162.399 L335.964,163.406 L336.583,161.698 L332.027,159.894 L330.886,161.727 L330.937,160.235 L329.017,160.587 L331.991,159.585 L330.32,158.201 L328.28,159.988 L326.41,158.621 L330.218,156.829 L325.614,157.24 L327.815,156.336 L325.809,155.278 L328.419,156.234 L330.235,154.528 L327.797,152.625 L330.542,154.306 L330.665,152.863 L334.137,153.212 L330.957,153.5 L334.496,155.067 L337.368,153.227 L336.808,151.329 L334.131,150.842 L334.74,152.936 L332.928,151.128 L332.541,148.338 L337.068,149.264 L337.594,147.821 L334.067,147.774 L333.933,145.694 L330.992,145.693 L333.764,145.019 L330.259,143.913 L335.3,144.978 L334.434,142.082 L330.4,141.721 L332.918,140.148 L329.994,140.542 L327.884,138.473 L333.526,136.596 L332.24,134.269 L328.452,134.113 L330.432,132.667 L327.786,131.847 L327.09,133.705 L326.411,131.532 L327.131,122.089 L324.846,123.82 L323.931,122.304 L327.35,119.429 L322.403,120.41 L327.592,117.466 L326.908,113.402 L323.373,113.557 L323.186,116.021 L320.6,115.884 L319.107,121.233 L318.163,114.108 L315.047,117.777 L315.671,114.948 L308.971,116.495 L309.959,114.711 L315.717,114.094 L317.927,111.53 L313.945,111.576 L313.892,109.774 L306.412,112.541 L307.743,110.445 L313.263,109.079 L304.781,108.929 L304.201,112.448 L300.945,109.994 L299.562,111.466 L303.086,112.531 L303.282,114.149 L298.981,112.099 L301.3,114.69 L299.38,114.478 L299.353,116.769 L294.725,112.858 L294.814,117.068 L292.398,114.975 L290.938,116.507 L291.753,113.251 L287.289,113.784 L288.386,117.316 L287.238,114.574 L285.399,114.465 L283.667,117.872 L282.68,116.587 L281.891,118.671 L281.945,116.809 L276.93,119.139 L276.542,120.527 L279.783,121.04 L275.02,124.872 L271.69,124.164 L264.874,126.199 L266.814,130.818 L270.854,131.47 L269.948,133.042 L266.487,131.754 L269.334,133.603 L263.219,131.687 L266.255,134.868 L263.384,135.306 L263.815,137.256 L266.014,138.968 L266.087,137.158 L267.7,138.909 L271.269,138.036 L274.123,139.916 L278.071,149.101 L275.481,150.967 L277.737,150.476 L276.405,156.625 L278.035,159.908 L275.57,159.683 L277.108,160.383 L275.437,162.44 L277.461,161.111 L273.925,163.451 L277.226,165.306 L279.105,160.756 L278.775,164.113 L281.753,164.389 L278.9,165.681 L282.086,165.796 L279.467,167.123 L281.597,166.685 L280.003,167.482 L282.399,168.297 L280.397,168.001 L282.404,171.96 L278.205,169.06 L274.735,169.137 L278.443,172.95 L282.758,173.491 L279.959,177.699 L282.452,178.137 L281.307,179.542 L279.988,178.081 L280.274,181.528 L276.958,180.325 L273.86,181.716 L279.961,181.502 L278.2,183.007 L280.404,184.73 L274.007,182.403 L276.532,184.054 L274.084,183.274 L272.274,186.039 L277.584,184.071 L275.894,184.823 L280.502,185.123 L271.905,186.38 L277.22,187.526 L271.393,187.692 L274.83,189.949 L271.622,190.562 L274.014,191.594 L271.217,191.199 L272.206,192.388 L270.466,193.376 L277.959,189.653 L279.272,190.522 L270.849,193.878 L275.073,194.24 L271.165,195.474 L272.461,197.763 L276.06,195.809 L277.81,196.816 L272.164,198.106 L273.676,198.299 L272.476,201.027 L275.093,200.275 L272.452,201.665 L272.307,204.44 L276.383,201.885 L276.011,199.134 L278.595,204.366 L275.648,202.475 L277.235,203.665 L272.921,204.629 L277.222,205.402 L273.167,205.436 L274.882,206.279 L272.905,207.46 L275.674,207.892 L273.476,208.881 L276.32,209.528 L273.729,209.475 L276.463,210.455 L275.191,212.833 L277.282,211.492 L275.039,214.441 L277.733,216.004 L276.235,217.572 L278.812,217.221 L276.711,218.526 L278.737,217.71 L277.491,219.223 L279.108,219.758 L277.115,220.124 L280.008,220.439 L277.517,221.01 L280.85,221.715 L281.243,224.702 L288.678,222.994 L285.413,225.404 L288.038,224.071 L286.05,226.438 L288.459,225.451 L288.305,227.563 L290.18,225.851 L288.271,229.08 L290.585,226.855 L289.66,229.943 M231.865,208.438 L229.006,196.546 L231.101,199.624 L231.578,197.359 L236.263,205.706 L237.936,199.192 L238.613,202.752 L240.048,198.805 L238.256,196.324 L240.065,196.117 L239.524,193.475 L237.476,194.25 L237.698,191.748 L236.775,193.365 L237.818,188.073 L235.144,188.589 L236.557,185.215 L239.126,186.408 L238.962,182.701 L241.458,183.745 L241.892,186.771 L243.685,185.691 L241.74,187.685 L246.107,186.591 L242.089,188.991 L244.659,194.824 L247.013,189.327 L248.204,191.72 L248.813,188.566 L250.79,189.939 L249.342,187.625 L252.381,188.512 L251.519,186.587 L253.664,186.836 L252.825,184.416 L250.408,186.054 L250.846,184.378 L248.35,184.628 L251.042,182.338 L248.56,184.133 L249.999,182.605 L246.832,183.009 L249.082,182.165 L247.522,181.121 L249.269,181.782 L249.123,179.042 L247.252,179.457 L249.118,178.075 L246.887,179.655 L246.865,177.42 L245.459,179.168 L246.731,177.033 L245.176,178.08 L246.194,176.33 L244.821,177.008 L245.293,174.839 L243.4,174.568 L246.283,174.487 L241.896,170.832 L244.981,172.088 L245.14,170.006 L243.107,170.313 L245.554,169.733 L244.109,168.44 L248.081,170.878 L247.831,169.083 L242.722,166.853 L248.535,167.872 L249.103,166.594 L248.372,164.354 L243.021,166.501 L247.131,164.565 L243.921,164.421 L248.71,163.276 L247.401,161.255 L244.38,162.099 L246.896,160.552 L241.46,163.51 L243.68,161.308 L241.896,161.35 L246.165,159.26 L241.475,160.018 L245.869,157.895 L244.753,155.174 L240.682,157.094 L243.443,153.925 L239.162,155.645 L241.441,153.766 L240.343,153.124 L243.397,152.228 L239.335,151.595 L243.379,149.655 L240.755,146.772 L238.19,147.473 L239.384,149.929 L236.967,148.113 L236.916,151.113 L236.665,146.26 L232.658,148.005 L236.924,144.944 L238.944,139.822 L233.084,138.718 L233.337,141.13 L231.101,139.54 L231.957,141.99 L230.367,139.923 L228.698,144.868 L228.326,142.891 L226.241,143.185 L226.748,146.107 L223.478,148.771 L224.268,147.438 L217.717,143.676 L216.099,146.748 L216.265,148.709 L219.541,148.957 L218.195,151.644 L223.796,156.001 L223.553,152.956 L224.528,157.414 L224.884,154.849 L228.601,158.531 L229.07,155.685 L231.255,154.718 L230.04,160.137 L231.935,159.566 L230.407,160.985 L232.203,161.655 L231.793,164.164 L228.102,165.794 L231.306,165.229 L231.908,168.623 L233.425,168.39 L232.036,176.305 L228.835,177.997 L230.447,179.323 L228.522,178.223 L223.98,179.715 L223.795,184.109 L218.232,182.984 L215.8,180.304 L210.929,184.646 L218.383,188.438 L219.69,185.744 L220.104,189.626 L221.8,188.176 L220.794,192.85 L223.372,195.443 L220.801,195.369 L221.03,197.386 L231.87,208.449 L231.865,208.438" id="polygon0" filter="url(#filter-1)"></path>
                </g>
            </g>
            <path d="M351,700 C157.7,700 1,543.3 1,350 C1,156.7 157.7,0 351,0 C544.299,0 701,156.7 701,350 C701,543.3 544.299,700 351,700 Z" id="path3517" fill="url(#radialGradient-2)" fill-rule="nonzero"></path>
            <g id="clouds" transform="translate(29.000000, 54.000000)" fill-opacity="0.914232337" fill="#FFFFFF">
                <path d="M330.58263,4.63418282 C373.113612,-0.0931257543 411.576191,-0.661604821 423.942471,22.0709004 C453.121317,23.2810027 482.946189,25.760136 497.257616,30.6605656 C544.058593,33.2232668 586.629801,39.5031417 557.335154,54.3229776 C529.615622,68.3459805 440.611269,64.7152805 396.835154,66.8229776 C362.546017,68.4739033 359.557738,69.0653309 338.763188,58.693009 C337.766389,58.7337603 336.790012,58.7770038 335.835154,58.8229776 C299.980992,60.5492549 298.350162,61.1171116 274.799923,49.2033077 C274.15547,48.8772862 273.534256,48.5551092 272.935864,48.2367305 C236.140024,50.8327736 190.778226,49.8915966 163.27242,51.215924 C127.418258,52.9422013 104.82266,89.6297279 81.2724204,77.715924 C33.9254411,53.7636141 146.706229,21.1415652 216.127768,15.1734266 C254.09492,5.35781461 311.897276,-4.88056682 328.335154,3.43517276 C329.137797,3.84122089 329.88649,4.24085805 330.582624,4.63418343 Z" id="Combined-Shape"></path>
                <path d="M426.562883,152.198462 C490.759198,152.198462 595.225131,119.186563 615.062883,161.698462 C634.900635,204.210361 564.485677,151.190131 514.062883,176.698462 C486.343351,190.721465 397.338998,187.090765 353.562883,189.198462 C317.70872,190.924739 295.113122,227.612266 271.562883,215.698462 C219.258996,189.238508 286.175222,193.49981 306.170253,150.650865 C326.165285,107.801919 362.366568,152.198462 426.562883,152.198462 Z" id="Polygon"></path>
                <path d="M301.970466,276.215924 C461.53675,283.931848 470.632714,243.204025 490.470466,285.715924 C510.308218,328.227823 439.893261,275.207593 389.470466,300.715924 C361.750934,314.738927 272.746581,311.108227 228.970466,313.215924 C193.116304,314.942201 34.9544212,308.413804 11.404182,296.5 C-40.8997052,270.040046 100.904182,310.017462 149.904182,297.517462 C198.904182,285.017462 142.404182,268.5 301.970466,276.215924 Z" id="Polygon-Copy" transform="translate(246.952091, 289.755147) scale(-1, 1) translate(-246.952091, -289.755147) "></path>
                <path d="M453.886028,385.629305 C494.019074,381.275181 622.548276,352.617406 642.386028,395.129305 C662.22378,437.641204 618.852697,390.764319 563,412.407239 C523,427.907239 424.662143,420.521608 380.886028,422.629305 C345.031866,424.355582 214.550239,408.321042 191,396.407239 C138.696113,369.947284 220,398.407239 269,385.907239 C318,373.407239 331.5,398.907239 453.886028,385.629305 Z" id="Polygon-Copy-2" transform="translate(410.683439, 397.453619) scale(1, -1) translate(-410.683439, -397.453619) "></path>
                <path d="M362.968947,469.566705 C383.468947,490.066705 389.697479,451.27073 409.535231,493.782629 C429.372984,536.294528 358.958026,483.274298 308.535231,508.782629 C280.815699,522.805632 191.811346,519.174932 148.035231,521.282629 C112.181069,523.008906 125.019187,513.980509 101.468947,502.066705 C49.1650601,475.606751 135.468947,484.066705 165.968947,483.566705 C196.468947,483.066705 342.468947,449.066705 362.968947,469.566705 Z" id="Polygon-Copy-3" transform="translate(248.984474, 492.247353) scale(-1, 1) translate(-248.984474, -492.247353) "></path>
                <path d="M492.535231,582.11967 C464.815699,596.142673 375.811346,592.511973 332.035231,594.61967 C296.181069,596.345947 309.019187,587.31755 285.468947,575.403746 C233.16506,548.943791 319.468947,557.403746 349.968947,556.903746 C380.468947,556.403746 542.958026,556.611339 492.535231,582.11967 Z" id="Polygon-Copy-4" transform="translate(385.583407, 575.415874) scale(1, -1) translate(-385.583407, -575.415874) "></path>
                <path d="M247.335154,169.322978 C219.615622,183.34598 130.611269,179.71528 86.835154,181.822978 C50.9809916,183.549255 49.3501617,184.117112 25.7999225,172.203308 C-26.5039647,145.743353 74.2688699,144.607054 104.76887,144.107054 C135.26887,143.607054 297.757949,143.814647 247.335154,169.322978 Z" id="Polygon-Copy-5"></path>
            </g>
        </g>
    </g>
</svg>