<svg width="2000px" height="330px" viewBox="0 0 2000 330" xmlns="http://www.w3.org/2000/svg">
    <title>Walking man animation</title>
    <g id="Page-1" stroke="none" stroke-width="1" fill="none" fill-rule="evenodd">
        <g id="WalkingManSprite" fill-rule="nonzero" fill="#ffffff">
            <path d="M115,31 L109,31 C74,36 65,81 94,99 C105,106 106,109 103,116 C99,123 93,160 92,175 C92,182 91,191 89,196 C87,202 87,206 89,211 C93,221 92,234 88,234 C85,234 85,236 87,243 C90,250 85,270 76,289 C71,302 71,303 79,305 C87,306 116,305 123,302 C128,300 129,299 127,296 C124,291 113,286 107,286 C102,286 101,286 103,281 C104,273 104,273 111,278 C114,280 118,282 119,282 C122,282 122,273 118,265 C117,261 115,257 115,257 C115,257 118,257 122,258 C128,260 137,259 139,257 C140,257 139,250 137,242 C136,234 135,225 134,222 C134,219 133,215 131,213 C129,211 130,208 134,197 C138,189 139,180 139,173 C139,163 138,157 131,130 C130,125 127,120 125,118 C120,113 122,105 128,103 C141,99 153,83 153,68 C153,48 136,31 115,31 Z M114,34 C121,34 128,35 131,37 C134,39 139,43 142,46 C158,65 148,97 124,101 C118,103 118,103 119,110 C120,114 123,123 126,130 C138,157 140,174 133,193 C126,210 123,210 114,189 L107,173 L113,157 C121,134 120,135 118,137 C116,138 113,147 110,156 L104,173 L111,190 C118,205 119,207 116,210 C112,213 114,213 120,210 C123,208 125,209 128,211 C132,215 133,219 129,217 C126,215 127,218 131,223 C133,227 133,229 131,231 C129,234 128,234 125,231 C123,229 122,229 121,230 C121,231 117,233 114,233 C107,235 107,235 107,226 C107,222 104,208 100,197 L93,175 L98,150 C100,136 103,122 105,119 C109,107 108,104 97,98 C90,94 86,90 83,84 C75,67 82,45 97,37 C101,35 108,34 114,34 Z M94,188 C96,188 103,216 105,230 C108,245 107,259 101,279 L98,288 L107,289 C117,290 127,296 124,299 C121,301 81,303 76,301 C74,300 75,297 78,290 C90,268 97,224 92,211 C90,206 90,202 91,196 C93,192 94,188 94,188 Z M124,222 C123,222 120,224 116,227 C113,230 111,232 112,232 C113,232 115,231 116,230 C117,229 120,227 122,225 C125,224 126,222 124,222 Z M126,235 L127,235 C133,235 133,236 135,245 L137,255 C137,257 124,256 118,254 C115,253 112,253 112,253 C111,254 113,258 114,263 C116,268 117,273 117,275 C116,278 116,278 111,274 C106,271 106,269 108,263 C109,259 109,252 109,248 C109,242 110,242 115,243 C121,243 121,243 121,239 C121,236 122,235 126,235 Z M114,236 C116,236 118,237 118,238 C119,239 118,240 117,240 C115,240 113,239 112,238 C112,237 113,236 114,236 Z" id="1"></path>
            <path d="M374,20 C357,20 345,28 338,43 C331,60 338,79 354,89 C359,92 363,96 363,97 C363,102 358,113 353,118 C350,121 344,128 341,133 L334,143 L336,160 C337,173 337,177 335,181 C333,183 331,188 331,191 C329,197 330,198 336,201 C340,203 343,206 343,207 C343,211 326,245 316,262 C304,281 304,284 315,298 L320,305 L339,304 C362,303 365,300 356,292 C352,288 347,286 344,286 C332,286 332,283 346,251 C353,234 359,219 360,217 C362,212 373,210 383,213 C395,217 393,219 372,224 C370,224 381,240 387,247 C395,255 407,262 413,262 C417,262 415,252 408,242 L403,234 L410,231 C424,225 424,223 407,207 L391,192 L395,182 C397,176 399,172 400,173 C411,177 432,182 434,182 C437,180 442,156 440,152 C440,151 437,150 435,150 C432,150 429,149 428,148 C426,146 413,151 413,155 C413,157 412,157 405,156 C400,154 397,153 397,150 C397,146 388,118 385,111 C380,101 380,95 387,92 C404,85 412,72 411,54 C410,34 394,20 374,20 Z M373,23 C387,22 401,31 407,44 C415,62 404,84 383,90 C377,92 376,93 377,98 C377,101 380,108 383,113 C385,119 389,131 390,139 L392,155 L402,158 C408,159 413,161 413,162 C415,167 417,164 416,159 C415,155 416,154 420,152 C427,150 428,150 426,152 C425,154 427,154 431,153 C436,152 438,153 439,155 C440,157 439,160 437,161 C436,162 435,165 435,167 C435,169 435,170 434,170 C433,170 431,167 431,164 C430,160 429,158 429,158 C427,160 431,173 433,173 C436,172 436,177 434,179 C433,180 420,176 406,172 L380,163 L378,147 C375,130 374,125 372,127 C372,127 377,159 378,163 C379,165 383,167 387,168 C397,171 397,171 388,190 C382,202 375,209 367,208 C362,207 361,208 354,225 C350,235 343,252 338,262 C330,280 330,281 333,285 C335,287 339,288 342,288 C347,288 359,297 357,299 C356,300 348,301 339,302 C320,303 319,302 312,287 L308,280 L318,263 C336,235 349,205 349,194 C349,187 351,179 356,170 C362,156 362,153 363,132 C363,120 364,105 364,100 C366,91 366,91 357,87 C329,74 333,33 363,24 C366,23 370,23 373,23 Z M358,118 C359,117 360,120 360,125 C362,134 361,135 355,140 L349,146 L351,158 C352,168 352,171 349,178 C345,186 342,188 339,185 C336,182 337,180 342,180 C346,180 346,180 343,178 C341,176 339,170 338,159 L337,142 L344,133 C348,127 353,122 355,120 C356,118 357,118 358,118 Z M360,140 C361,141 361,144 359,152 C357,164 354,165 353,155 C352,149 353,146 356,143 C358,141 359,140 360,140 Z M336,188 C338,188 339,190 339,194 C339,201 339,201 336,198 C332,194 333,188 336,188 Z M344,189 C345,189 346,191 346,194 C347,199 345,203 343,201 C341,199 341,191 343,189 L344,189 Z M390,196 C392,196 417,220 417,223 C417,224 409,228 401,231 C397,232 397,232 401,237 C405,242 411,253 411,256 C411,265 385,245 378,231 C376,227 376,226 385,223 C391,221 395,219 395,217 C395,216 392,213 388,211 L380,208 L384,202 C386,199 389,196 390,196 Z" id="2"></path>
            <path d="M626,34 C620,34 614,35 609,38 C584,51 582,87 606,102 C617,109 621,118 612,118 C608,118 587,129 579,136 C572,142 572,143 571,160 C570,171 568,180 565,185 C563,191 562,194 564,195 C567,200 586,208 593,208 C598,208 599,209 599,213 C599,220 593,231 587,239 C582,244 569,251 557,255 C553,256 553,258 554,268 C556,284 559,294 564,299 C567,302 570,303 581,302 C589,301 596,300 597,300 C599,298 592,288 586,286 C584,285 581,282 581,280 C580,279 579,276 578,274 C577,271 580,269 590,263 C601,256 603,254 609,241 C612,233 616,226 617,226 C621,226 635,248 639,259 C641,265 644,275 645,281 L646,293 L653,292 C669,290 695,272 695,263 C695,260 694,260 684,261 C678,261 670,263 667,263 C663,264 662,264 659,255 C657,249 651,239 646,231 L638,218 L645,204 C648,196 651,186 651,182 L651,176 L656,180 L661,185 L667,179 C670,176 674,171 676,169 C677,167 683,163 688,160 L698,155 L693,148 C690,144 687,139 687,137 C686,132 680,129 675,132 C673,133 670,134 669,134 C667,134 665,137 663,141 C660,147 660,148 663,151 C665,153 665,154 663,156 C660,158 659,156 652,146 C648,139 642,130 639,126 C631,116 632,110 645,104 C667,93 672,64 656,45 C649,38 637,34 626,34 Z M625,36 L627,36 C643,37 659,49 663,65 C666,81 654,100 638,104 C631,107 630,107 631,114 C632,118 634,124 638,128 C641,131 647,140 651,148 C655,155 658,162 659,162 C659,163 661,161 663,160 C665,158 668,156 669,156 C671,156 671,155 668,151 C663,147 663,146 666,141 C668,138 669,137 669,138 C669,140 671,140 675,136 C678,133 680,132 682,134 C684,136 684,137 682,141 C680,144 680,147 682,147 C683,148 683,147 683,146 C682,141 687,143 690,148 C693,154 693,155 691,156 C690,157 687,158 686,158 C684,158 678,163 672,170 L661,181 L647,166 C639,157 632,150 631,150 C630,150 634,155 639,161 C650,172 650,173 649,182 C647,193 638,213 632,218 C629,221 625,223 621,223 C614,223 613,224 607,239 C601,252 598,255 590,260 C574,270 574,269 577,278 C578,283 581,286 583,287 C585,288 588,290 591,292 C594,296 594,297 591,298 C586,302 570,301 565,296 C558,289 554,256 560,256 C565,256 580,248 587,241 C596,233 602,221 603,209 C603,203 605,193 608,187 C615,172 618,158 617,138 C617,129 618,118 618,113 C620,105 619,105 611,101 C597,95 589,79 592,63 C594,55 604,43 613,39 C617,37 621,36 625,36 Z M613,120 L613,128 C613,136 613,136 600,143 L587,149 L587,165 C587,179 587,180 583,180 C581,180 579,181 579,182 C579,183 578,184 576,184 C575,184 573,183 572,182 C572,181 573,180 574,180 C576,180 577,179 577,178 C577,177 576,176 575,176 C573,176 572,174 573,166 C575,143 576,142 589,133 C595,129 604,124 607,123 L613,120 Z M612,141 L614,145 C616,152 612,171 606,185 C603,192 601,198 600,198 C600,198 599,195 599,191 C599,185 597,183 594,181 C590,179 589,178 589,165 L589,151 L601,146 L612,141 Z M586,184 L588,184 L589,184 C593,184 595,185 595,186 C595,189 590,189 584,186 C582,185 582,185 586,184 Z M571,186 C572,186 573,187 573,189 C573,190 572,193 572,195 C570,198 570,198 568,196 C566,194 566,191 567,189 C567,187 570,186 571,186 Z M579,188 C580,188 581,191 581,195 C581,202 579,204 576,200 C573,196 575,188 579,188 Z M586,190 C594,190 598,193 597,199 C596,205 594,207 587,205 C583,204 582,190 586,190 Z M635,220 L642,229 C645,234 651,245 655,253 C658,262 662,268 663,268 C663,268 669,267 675,265 C681,263 687,262 690,263 C694,263 694,263 689,270 C686,273 678,279 671,282 C664,285 656,288 653,289 C648,290 648,290 647,278 C645,265 639,249 630,236 L624,227 L630,224 L635,220 Z" id="3"></path>
            <path d="M871,48 C858,48 850,52 842,61 C831,73 829,88 837,103 C840,108 853,120 857,120 C858,120 860,122 860,124 C862,127 858,130 853,130 C851,130 818,145 816,147 C815,148 813,155 811,163 C809,174 806,180 803,182 C801,183 798,187 796,191 C793,197 793,197 799,202 C807,209 825,217 828,215 C831,211 832,190 829,188 C827,187 827,184 829,173 L830,160 L844,155 L857,151 L858,156 C859,166 855,185 850,197 C844,210 844,216 846,238 C847,243 847,248 846,248 C845,248 839,247 831,245 C811,241 812,241 814,253 C816,266 823,282 831,291 C840,301 842,298 842,281 L842,268 L852,269 C864,269 862,271 867,246 C869,234 873,235 880,248 C886,259 886,259 882,266 C881,270 876,277 873,282 C870,287 868,291 868,292 C869,292 877,293 887,294 C905,295 927,292 927,288 C927,285 919,281 909,278 C904,277 900,275 900,275 C899,275 901,272 902,268 C907,259 906,254 895,238 L886,223 L890,211 C893,205 895,196 895,191 C895,184 896,184 899,187 C906,193 912,191 926,178 C930,175 937,171 942,169 C947,167 951,165 951,164 C951,164 949,159 946,155 C944,151 941,147 941,145 C941,144 940,142 938,140 C936,138 934,138 931,140 C929,141 926,142 924,142 C921,142 915,153 916,157 C916,160 911,168 908,168 C907,168 905,165 902,161 C900,157 894,149 888,143 C876,130 875,125 885,120 C896,115 905,105 907,95 C914,71 896,48 871,48 Z M871,51 C883,51 895,57 901,67 C911,83 904,108 887,116 C882,118 877,120 876,120 C872,120 877,137 882,141 C885,143 892,151 897,158 C902,165 906,172 907,172 C907,173 910,171 913,168 C916,165 920,162 921,162 C923,162 923,161 921,158 C918,155 918,154 920,149 C921,147 923,144 924,144 C925,144 925,145 924,146 C922,150 925,148 930,144 C933,141 934,140 937,142 C938,144 939,146 938,148 C938,150 939,152 940,153 C942,154 943,155 942,156 C941,158 939,157 936,154 C931,150 931,150 936,156 C940,160 943,161 944,160 C945,158 945,158 946,160 C948,163 946,165 937,168 C934,170 928,173 924,176 C921,179 915,183 911,185 L905,189 L890,173 C882,164 875,158 875,159 C875,160 880,165 885,171 C894,181 894,181 893,192 C891,211 875,238 868,233 C865,232 863,237 863,246 C863,250 863,257 862,260 C861,266 861,266 849,266 C833,266 832,266 836,268 C839,270 839,273 839,281 C839,287 838,292 837,292 C834,292 823,275 819,263 C814,247 814,244 819,245 C826,247 841,250 845,250 C851,250 853,238 848,227 C845,218 846,213 855,192 C860,181 860,176 861,156 C861,144 862,130 862,127 C864,121 863,120 857,117 C842,110 835,100 835,85 C835,74 839,67 848,59 C855,53 863,51 871,51 Z M855,132 C856,132 857,135 857,140 L857,147 L843,152 C835,155 829,158 828,159 C828,160 826,166 825,173 C824,179 823,185 823,185 L823,185 C823,185 819,186 814,187 C807,188 805,188 805,185 C805,183 806,182 808,183 C810,184 811,183 811,180 C811,178 813,170 815,162 L818,149 L835,141 C845,136 854,132 855,132 Z M801,188 C802,188 803,189 805,190 C807,191 813,194 818,196 C827,199 827,200 827,205 C826,213 824,213 813,208 C807,204 805,202 805,199 C805,196 805,196 804,198 C801,201 797,196 799,191 C799,189 800,188 801,188 Z M817,189 C820,189 826,190 827,191 L827,191 L827,194 C826,196 815,192 815,190 C815,190 816,189 817,189 Z M884,227 C885,227 886,228 887,231 C889,233 894,240 898,246 L904,256 L900,266 C898,271 896,276 896,276 C895,277 899,278 903,279 C907,280 913,282 917,284 C923,287 923,287 920,288 C916,290 873,291 873,289 C873,289 877,283 880,276 C884,269 887,261 887,259 C887,257 885,250 881,245 C876,234 876,234 880,230 C882,228 883,227 884,227 Z" id="4"></path>
            <path d="M1115,33 C1110,33 1105,34 1100,36 C1072,49 1070,86 1097,102 C1105,106 1106,107 1104,112 C1104,115 1103,121 1102,125 C1102,130 1099,140 1095,149 L1087,164 L1091,172 C1095,179 1095,180 1092,187 C1089,196 1089,208 1092,213 C1094,215 1095,221 1095,225 C1095,232 1095,232 1089,231 C1083,230 1083,230 1084,234 C1085,237 1087,242 1089,246 C1091,252 1091,253 1087,261 C1085,265 1080,273 1076,279 C1072,284 1069,289 1069,290 C1069,291 1072,292 1075,293 C1093,296 1128,293 1128,288 C1128,287 1125,285 1123,283 C1119,280 1118,277 1117,268 L1117,257 L1123,256 C1140,252 1142,250 1141,243 C1140,240 1137,233 1134,227 C1130,222 1129,218 1130,219 C1132,219 1135,218 1136,216 C1139,213 1139,211 1138,204 C1136,198 1137,194 1139,187 C1144,174 1141,156 1132,135 C1123,114 1122,106 1126,106 C1128,106 1132,104 1137,101 C1155,90 1160,66 1148,50 C1140,38 1128,32 1115,33 Z M1117,35 C1124,35 1133,38 1140,44 C1152,54 1155,70 1147,86 C1143,95 1130,104 1121,104 C1118,104 1117,105 1119,107 C1120,108 1121,111 1121,112 C1121,114 1124,122 1127,129 C1137,150 1140,167 1137,181 C1135,193 1133,196 1128,192 C1127,191 1125,190 1124,191 C1123,192 1118,186 1114,179 C1106,165 1106,164 1119,144 C1122,139 1123,136 1121,138 C1116,142 1105,161 1105,165 C1105,167 1109,174 1112,181 C1118,191 1119,194 1117,196 C1115,198 1115,198 1117,198 C1118,198 1120,197 1120,196 C1122,193 1129,194 1132,198 C1136,202 1136,202 1132,201 C1129,200 1129,200 1134,206 C1138,211 1138,213 1135,214 C1131,217 1130,217 1127,213 C1125,210 1125,210 1128,208 C1129,207 1130,206 1128,206 C1125,206 1115,216 1116,218 C1117,218 1119,217 1120,215 C1122,213 1124,212 1125,213 C1126,214 1125,216 1123,217 C1116,222 1112,221 1110,215 C1110,212 1106,201 1102,191 C1098,181 1094,171 1093,168 C1091,164 1092,160 1100,145 C1104,135 1109,126 1109,125 C1110,124 1109,124 1107,125 C1105,126 1105,125 1106,120 C1109,106 1109,106 1100,100 C1088,94 1083,87 1081,75 C1078,52 1097,35 1117,35 Z M1096,183 L1100,192 C1102,197 1105,205 1107,211 C1108,216 1108,220 1108,220 C1103,220 1097,216 1095,212 C1091,206 1091,202 1094,191 L1096,183 Z M1101,220 C1104,220 1109,227 1109,231 C1109,234 1103,236 1101,233 C1099,231 1099,220 1101,220 Z M1123,221 C1126,221 1128,224 1132,231 C1141,246 1141,247 1130,251 C1125,252 1118,254 1115,255 C1110,256 1110,257 1112,260 C1114,262 1115,265 1115,270 C1114,280 1111,280 1103,269 C1097,261 1087,239 1087,234 C1087,233 1092,234 1098,235 C1108,238 1116,239 1120,238 C1121,238 1119,235 1116,231 L1111,225 L1118,222 C1120,222 1122,221 1123,221 Z M1113,232 C1115,232 1115,233 1115,234 C1115,235 1115,236 1113,236 C1112,236 1111,235 1111,234 C1111,233 1112,232 1113,232 Z M1092,256 L1096,262 C1098,266 1099,271 1099,273 C1098,277 1098,278 1103,279 C1107,280 1113,282 1117,283 C1124,286 1124,287 1120,288 C1116,290 1073,291 1073,289 C1073,289 1076,284 1080,278 C1084,273 1088,266 1089,262 L1092,256 Z" id="5"></path>
            <path d="M1371,19 C1349,18 1329,38 1332,61 C1334,73 1340,81 1351,88 C1358,92 1361,96 1361,98 C1361,101 1354,109 1342,121 L1323,139 L1325,160 C1327,176 1327,184 1325,192 C1322,204 1324,206 1335,206 C1338,206 1341,207 1341,208 C1341,211 1321,239 1309,253 L1297,266 L1301,276 C1304,281 1308,287 1310,290 C1314,294 1315,295 1330,293 C1349,292 1353,290 1345,283 C1342,280 1338,278 1336,278 C1334,278 1330,277 1329,274 C1325,271 1326,270 1336,254 C1342,245 1350,232 1354,225 C1359,215 1362,212 1366,211 C1372,210 1383,215 1383,219 C1383,219 1380,221 1375,222 C1364,226 1363,227 1365,232 C1374,249 1410,273 1409,262 C1409,258 1402,243 1400,241 C1395,239 1397,235 1405,230 C1410,227 1413,224 1413,222 C1413,221 1407,214 1400,207 L1387,194 L1390,185 C1394,177 1394,177 1402,178 C1407,178 1412,180 1414,181 C1422,187 1427,185 1432,175 C1434,170 1436,162 1437,157 C1438,150 1437,149 1433,148 C1428,146 1415,148 1412,151 C1411,152 1410,154 1411,156 C1412,158 1410,158 1404,158 C1398,157 1396,156 1396,152 C1395,145 1387,122 1382,112 C1378,104 1378,92 1381,92 C1382,92 1387,89 1392,86 C1416,70 1413,34 1386,22 C1381,20 1376,19 1371,19 Z M1371,21 C1379,21 1387,24 1393,30 C1406,40 1409,58 1401,73 C1396,81 1383,90 1375,90 C1372,90 1371,91 1373,92 C1374,92 1375,96 1376,100 C1377,104 1380,115 1385,125 C1391,141 1392,145 1392,159 C1392,172 1392,177 1387,186 L1382,196 L1388,199 C1397,205 1409,218 1409,222 C1409,224 1406,228 1398,232 C1390,236 1388,238 1391,238 C1394,238 1397,241 1400,247 C1403,252 1405,257 1405,259 C1404,264 1389,256 1378,243 C1367,232 1365,228 1371,227 C1373,226 1378,224 1382,222 L1390,219 L1381,213 C1375,209 1370,208 1364,208 L1355,208 L1356,199 C1357,190 1355,183 1351,180 C1350,179 1350,176 1353,172 C1357,164 1361,147 1361,140 C1361,137 1363,134 1364,133 C1366,132 1367,131 1367,130 C1367,128 1353,136 1343,143 L1339,146 L1342,163 C1345,178 1345,179 1342,182 C1339,184 1339,185 1344,184 C1348,183 1350,184 1352,187 C1356,192 1356,195 1353,193 C1351,192 1351,193 1352,198 C1354,206 1348,209 1344,203 C1342,200 1341,200 1340,202 C1339,204 1328,204 1326,202 C1326,201 1327,197 1328,192 C1329,186 1329,176 1328,162 L1326,140 L1340,126 C1348,119 1358,111 1361,108 C1365,106 1367,104 1366,104 C1364,104 1363,102 1363,98 C1363,92 1362,90 1355,87 C1350,85 1344,80 1341,75 C1334,65 1333,48 1340,38 C1348,27 1359,21 1371,21 Z M1358,136 C1360,136 1357,153 1353,164 C1351,170 1348,174 1348,174 C1347,174 1345,170 1345,165 C1344,160 1343,154 1342,152 C1341,148 1343,146 1349,142 C1354,139 1358,136 1358,136 Z M1429,150 C1436,150 1437,153 1433,160 C1431,164 1423,166 1420,162 C1420,161 1420,158 1421,155 C1422,151 1423,150 1429,150 Z M1415,152 C1417,152 1417,154 1417,157 C1417,159 1416,163 1415,164 C1414,166 1413,165 1413,160 C1413,156 1414,152 1415,152 Z M1405,162 C1409,162 1411,163 1411,165 C1411,167 1412,168 1414,169 C1416,169 1414,176 1411,176 C1410,176 1409,175 1409,173 C1409,170 1409,170 1407,172 C1404,176 1395,175 1395,171 C1395,165 1398,162 1405,162 Z M1428,167 C1431,167 1431,167 1431,169 C1431,171 1429,172 1424,172 C1415,172 1416,168 1425,167 L1427,167 L1428,167 Z M1425,174 C1428,174 1428,175 1426,179 C1426,181 1424,182 1424,182 C1414,180 1413,176 1422,175 C1423,174 1425,174 1425,174 Z M1342,197 C1340,197 1336,197 1333,198 C1329,199 1329,200 1332,200 C1335,200 1339,199 1341,198 C1345,197 1346,197 1342,197 Z M1352,209 C1353,209 1354,210 1355,210 C1357,211 1356,215 1348,228 C1343,238 1335,251 1330,258 L1321,271 L1326,275 C1328,278 1332,280 1333,280 C1335,280 1339,282 1341,283 C1345,286 1345,287 1343,288 C1342,289 1334,290 1327,290 C1314,290 1313,290 1309,284 C1307,281 1304,276 1303,272 C1301,267 1302,266 1312,254 C1318,248 1327,236 1332,228 C1338,220 1343,213 1343,212 C1345,210 1349,209 1352,209 Z" id="6"></path>
            <path d="M1623,34 C1604,34 1587,48 1586,67 C1585,73 1585,80 1586,83 C1588,89 1598,102 1606,105 C1615,110 1613,114 1597,123 C1589,128 1579,134 1575,137 C1568,142 1568,142 1566,159 C1566,168 1564,181 1562,189 C1560,196 1560,203 1560,204 C1561,205 1565,207 1569,207 C1573,208 1577,210 1578,211 C1580,215 1589,209 1589,204 C1589,201 1590,198 1591,197 C1594,195 1589,180 1585,180 C1584,180 1583,174 1583,166 L1583,152 L1594,147 C1609,140 1609,141 1609,152 C1609,163 1606,177 1599,191 C1596,198 1595,203 1596,211 C1598,229 1585,242 1561,245 C1557,246 1553,248 1552,250 C1550,254 1555,286 1557,289 C1563,296 1589,295 1589,288 C1589,286 1587,283 1585,281 C1572,270 1570,265 1579,264 C1589,262 1598,254 1605,242 L1611,230 L1618,238 C1631,252 1639,275 1639,294 L1639,303 L1646,301 C1669,297 1699,272 1686,267 C1683,266 1670,268 1663,271 C1661,272 1659,269 1654,259 C1651,251 1645,240 1640,233 L1632,220 L1639,206 C1644,196 1646,189 1647,180 C1647,174 1648,168 1649,168 C1649,168 1652,170 1656,172 L1663,176 L1671,169 C1675,165 1680,162 1681,162 C1687,162 1693,157 1693,152 C1693,147 1688,133 1683,126 C1680,122 1680,121 1674,124 C1671,126 1667,130 1664,134 C1660,141 1660,141 1663,145 C1665,147 1665,149 1663,151 C1661,154 1659,152 1645,138 C1627,118 1625,112 1636,107 C1669,94 1670,53 1638,38 C1633,36 1628,34 1623,34 Z M1622,38 C1643,37 1658,51 1658,71 C1658,77 1656,85 1655,88 C1651,96 1640,104 1632,105 C1626,107 1626,107 1628,116 C1628,121 1631,130 1634,136 C1642,153 1646,171 1644,182 C1643,192 1632,216 1629,216 C1626,216 1627,220 1635,230 C1640,237 1652,259 1659,274 C1659,274 1664,273 1671,271 C1680,269 1684,268 1686,270 C1689,273 1675,287 1662,293 C1641,302 1641,302 1641,292 C1641,269 1632,248 1613,229 C1599,216 1598,215 1598,206 C1598,201 1600,193 1604,186 C1610,174 1614,151 1612,145 C1611,143 1612,141 1614,140 C1619,136 1603,140 1592,145 L1581,150 L1581,165 C1581,177 1581,180 1578,182 C1575,184 1575,184 1580,184 C1585,183 1586,184 1588,188 C1590,194 1590,198 1587,194 C1586,192 1586,193 1586,199 C1586,205 1586,207 1583,208 C1581,208 1579,207 1578,203 C1577,200 1576,198 1572,198 C1570,198 1567,199 1566,200 C1566,202 1567,202 1570,201 C1573,200 1575,201 1575,202 C1575,204 1564,205 1563,202 C1562,202 1563,197 1564,192 C1566,187 1568,174 1569,164 C1569,153 1570,144 1571,143 C1574,139 1610,118 1615,118 C1619,118 1620,118 1618,117 C1616,116 1615,113 1615,110 C1615,107 1612,105 1608,103 C1588,95 1581,68 1594,51 C1601,42 1610,38 1622,38 Z M1678,125 C1679,125 1681,127 1682,129 C1686,134 1686,135 1681,139 C1675,146 1674,145 1671,138 C1669,132 1670,129 1675,126 C1676,126 1677,126 1678,125 Z M1638,135 C1639,134 1643,139 1649,145 C1659,157 1661,158 1665,153 C1669,149 1681,154 1678,159 C1678,160 1676,159 1674,158 C1671,156 1671,156 1672,159 C1673,162 1672,164 1669,168 C1664,173 1662,173 1654,168 C1649,164 1646,160 1642,149 L1638,135 Z M1665,138 C1666,137 1668,139 1670,142 C1675,150 1674,152 1668,145 C1665,143 1664,140 1664,138 L1665,138 Z M1685,138 C1687,138 1687,139 1688,141 C1689,143 1688,146 1685,148 C1682,150 1681,152 1683,152 C1684,152 1686,151 1687,150 C1689,148 1690,148 1691,151 C1691,153 1691,155 1689,156 C1684,159 1682,159 1680,152 C1677,147 1677,146 1680,142 C1683,140 1684,139 1685,138 Z M1601,222 C1603,222 1604,223 1605,225 C1608,228 1607,230 1603,238 C1598,251 1590,257 1579,261 C1574,262 1570,263 1570,263 C1568,265 1575,278 1578,279 C1583,281 1588,286 1586,288 C1586,289 1580,290 1573,290 C1559,290 1557,288 1557,266 L1556,250 L1567,247 C1582,243 1590,238 1594,230 C1597,225 1599,222 1601,222 Z" id="7"></path>
            <path d="M1873,53 C1863,54 1854,57 1847,65 C1830,84 1833,110 1855,122 C1864,128 1865,131 1860,132 C1851,135 1839,141 1829,148 C1819,154 1818,156 1812,170 C1809,178 1804,190 1801,196 C1798,203 1795,209 1795,210 C1795,212 1816,221 1820,221 C1822,221 1824,220 1825,218 C1825,216 1827,213 1828,211 C1830,206 1830,198 1827,193 C1825,189 1826,185 1828,177 C1831,167 1832,166 1840,163 C1845,161 1851,159 1855,158 C1861,157 1861,157 1861,164 C1861,174 1857,189 1851,202 C1847,212 1846,224 1849,231 C1850,233 1851,237 1851,240 C1851,245 1851,245 1844,245 C1840,245 1833,244 1828,242 C1824,241 1820,239 1820,239 C1818,239 1822,260 1827,269 C1832,282 1844,294 1847,292 C1850,291 1849,278 1846,271 C1845,268 1846,267 1851,267 C1854,267 1860,266 1863,265 C1869,263 1870,262 1869,254 C1869,249 1869,245 1870,245 C1871,245 1874,249 1877,254 C1881,261 1882,265 1880,270 C1879,276 1873,291 1868,302 C1867,302 1870,304 1874,305 C1882,308 1912,306 1920,303 C1923,302 1925,300 1925,299 C1923,294 1914,289 1906,288 L1898,287 L1902,273 C1906,259 1906,259 1902,253 C1900,251 1895,244 1892,239 L1885,230 L1892,216 C1897,206 1898,199 1898,191 C1898,184 1899,179 1900,179 C1901,179 1905,181 1909,182 C1917,185 1917,185 1925,180 C1930,178 1934,175 1935,175 C1937,175 1940,174 1944,172 C1949,169 1950,168 1948,163 C1947,155 1941,142 1937,136 C1934,132 1934,132 1926,139 C1916,149 1914,153 1919,157 C1922,161 1922,161 1919,162 C1917,163 1910,159 1900,150 C1892,143 1884,137 1883,137 C1882,137 1881,135 1881,132 C1881,129 1883,127 1886,126 C1893,125 1905,114 1909,106 C1913,99 1913,82 1909,74 C1902,60 1887,53 1873,53 Z M1874,56 C1882,56 1890,59 1897,65 C1909,74 1913,90 1907,104 C1903,113 1891,123 1883,124 C1876,126 1876,126 1877,131 C1878,134 1881,141 1884,146 C1899,177 1899,204 1883,225 C1881,228 1883,231 1891,243 L1902,258 L1900,269 C1898,275 1897,282 1896,284 C1895,288 1896,289 1904,290 C1913,291 1924,298 1921,300 C1921,300 1914,302 1907,303 C1893,305 1890,305 1879,303 C1871,302 1871,301 1877,288 C1880,283 1882,274 1883,269 C1884,262 1883,259 1878,251 C1874,246 1867,239 1861,235 C1847,226 1846,220 1856,199 C1860,188 1862,180 1863,169 L1864,153 L1857,154 C1853,155 1845,158 1839,161 C1829,166 1828,167 1825,179 C1822,187 1820,191 1818,191 C1817,191 1816,192 1816,193 C1817,194 1819,195 1821,195 C1825,195 1827,199 1827,204 C1827,206 1827,207 1825,206 C1824,206 1823,207 1823,209 C1823,219 1816,223 1814,214 C1813,211 1812,210 1812,211 C1810,213 1803,213 1800,210 C1798,210 1801,202 1805,193 C1809,184 1814,172 1816,167 C1819,160 1822,156 1829,151 C1840,143 1857,135 1863,135 C1866,135 1867,134 1867,130 C1867,126 1865,124 1858,121 C1847,116 1839,105 1839,92 C1839,79 1841,74 1851,65 C1858,59 1866,56 1874,56 Z M1933,138 C1934,138 1935,139 1936,140 C1938,143 1939,145 1939,146 C1939,148 1937,151 1935,153 L1930,158 L1927,152 C1924,146 1924,146 1929,141 C1931,139 1932,138 1933,138 Z M1888,144 C1888,144 1895,149 1902,156 C1914,166 1916,168 1920,166 C1924,163 1933,166 1933,170 C1933,172 1933,173 1931,173 C1930,173 1929,172 1929,171 C1929,170 1929,169 1928,169 C1927,169 1926,171 1927,173 C1927,175 1926,177 1922,179 C1920,180 1916,181 1915,181 C1910,181 1897,175 1897,173 C1897,172 1895,165 1892,158 C1889,151 1887,145 1888,144 Z M1920,151 C1921,151 1923,152 1925,155 C1928,158 1929,161 1928,161 C1925,161 1919,154 1920,151 L1920,151 Z M1941,152 C1944,152 1944,158 1939,161 C1937,163 1935,165 1937,165 C1938,165 1940,164 1940,163 C1942,160 1945,161 1945,165 C1945,167 1944,169 1942,170 C1938,172 1938,172 1934,165 C1931,159 1932,156 1938,153 C1939,153 1940,152 1941,152 Z M1857,237 L1858,237 C1863,238 1865,241 1866,251 C1866,259 1866,260 1861,263 C1858,264 1853,265 1849,264 C1841,263 1840,263 1844,273 C1845,276 1845,281 1845,284 L1844,290 L1838,283 C1831,275 1823,256 1823,248 C1823,244 1823,244 1834,247 C1850,251 1854,250 1854,242 C1854,238 1855,237 1857,237 Z" id="8"></path>
        </g>
    </g>
</svg>