<?xml version="1.0" encoding="UTF-8"?>
<svg width="210mm" height="183.54mm" clip-rule="evenodd" fill-rule="evenodd" image-rendering="optimizeQuality" shape-rendering="geometricPrecision" text-rendering="geometricPrecision" version="1.1" viewBox="0 0 21000 18354" xmlns="http://www.w3.org/2000/svg">
 <defs>
  <style type="text/css">.str0 {stroke:#CF8878;stroke-width:20} .fil10 {fill:none} .fil4 {fill:#D9DADA} .fil2 {fill:#E31E24} .fil0 {fill:#010101} .fil8 {fill:#B3765A} .fil6 {fill:#CC8B7D} .fil11 {fill:#CC977E} .fil9 {fill:#CF8878} .fil12 {fill:#D9CBC2} .fil5 {fill:#E09989} .fil7 {fill:#EDA291} .fil3 {fill:#C52C32} .fil1 {fill:whitesmoke}</style>
 </defs>
 <polygon class="fil0" points="7294 10454 12617 10744 12956 11477 20794 15632 21000 18354 0 17574 181 14083 6966 11419"/>
 <polygon class="fil1" points="7294 13164 13258 13480 13802 18118 7270 17873"/>
 <polygon class="fil2" points="10109 14374 11247 14374 11367 18033 9955 17980"/>
 <path class="fil3" d="m10560 13188c448 0 908-21 908 581 0 601-363 1088-811 1088s-810-487-810-1088c0-602 266-581 713-581z"/>
 <path class="fil4" d="m7323 10345c957 1032 1994 1941 3273 2488 832-321 1483-980 2057-1786l1088 4355-3026-2025c-1297 635-2304 1257-3601 1892 166-1646 43-3279 209-4924z"/>
 <path class="fil5" d="m5510 5881c-140 217 76 512 139 763 64 254 165 498 242 750 64 208 84 433 181 629 107 214 245 421 424 580 63 57 179 64 254 24l544-290-629-3266c-385 270-900 415-1155 810z"/>
 <path class="fil5" d="m13597 5930c391 109 965-22 1173 326 209 352-160 803-266 1198-76 283-18 700-278 835l-654 338 25-2697z"/>
 <path class="fil6" d="m13524 9595l-6629-1318c117 536 241 1071 351 1609 40 196 7 413 96 592 160 321 365 630 629 871 422 384 943 643 1404 980 394 289 696 744 1161 895 196 64 341-230 508-351 285-206 662-329 847-629l1633-2649z"/>
 <path class="fil7" d="m6308 5742c197 837 211 1722 508 2529 259 702 732 1306 1137 1935 225 349 398 774 750 992 471 291 1044 435 1597 460 558 25 1120-124 1645-315 316-114 595-334 823-580 345-376 752-763 871-1259 311-1300 339-2655 387-3992 41-1137 881-2872-121-3411-1825-982-4272-712-6218 0-1038 380-1254 1846-1645 2879-95 252 204 500 266 762z"/>
 <path class="fil8" d="m8600 5446l-943 121c270-153 504-410 810-460 401-65 818 30 1210 133 119 31 324 146 266 254-74 139-302 115-459 109-299-11-587-195-884-157z"/>
 <path class="fil8" d="m11492 5373c-101-8-267 71-303-24-41-106 72-258 182-290 314-92 721-249 980-49l919 714c-262-89-515-212-786-266-326-64-662-57-992-85z"/>
 <path class="fil9" d="m9738 6099c-537-143-1073-135-1609-85 209-76 408-197 629-229 204-30 420-15 617 48 142 46 507 305 363 266z"/>
 <path class="fil9" d="m11274 6111c454-127 994-151 1609-84-210-77-408-198-629-230-204-30-421-15-617 48-143 46-508 307-363 266z"/>
 <path class="fil10 str0" d="m9907 6910c-93 234-171 474-278 701-39 81-105 145-158 218"/>
 <path class="fil10 str0" d="m10959 6752c45 154 57 320 133 460 88 161 234 282 351 423"/>
 <path class="fil10 str0" d="m9774 8107c52-52 84-172 157-157 188 38 317 222 496 290 83 32 185 37 266 0 136-61 215-217 351-278 92-41 202-8 302-12"/>
 <path class="fil10 str0" d="m8588 8773c222 40 444 82 666 121 197 34 392 95 592 96 352 3 703-48 1053-84 263-28 526-61 786-109 216-41 428-105 641-157"/>
 <path class="fil10 str0" d="m8975 8047c-165 93-352 154-496 278-120 104-185 258-278 387"/>
 <path class="fil10 str0" d="m11988 7926c306 115 524 340 701 617"/>
 <path class="fil5" d="m10663 9523c378 0 684 152 684 459 0 308-306 557-684 557-377 0-683-249-683-557 0-307 306-459 683-459z"/>
 <path class="fil11" d="m5610 6517c221 262 417 207 710 24 298-186 228-658 424-944 160-232 396-409 623-581 191-144 460-189 624-362 229-243 213-715 523-847 479-205 1051 13 1571-49 300-35 579-169 872-242 231-56 461-164 698-145 362 30 702 181 1047 291 163 51 311 246 474 193 119-38-76-357 49-363 190-9 388 165 449 339 127 359-160 239-124 617 22 243 66 484 99 726 42 306 79 613 125 919 37 251-133 789 125 750 545-82 1434-478 1657-968 125-274-451-441-548-725-185-543-359-1129-274-1694 57-385 722-582 673-968-56-436-581-679-923-968-245-207-590-287-822-508-115-108-25-380-175-435-813-297-1675-510-2542-557-951-51-1938-21-2842 267-550 174-999 615-1346 1064-493 638-843 1380-1122 2129-159 428 15 902-25 1355-34 386-252 1381 0 1682z"/>
 <path class="fil12" d="m5761 5817c205 244 701 193 974 23 276-173 211-613 394-878 149-216 368-381 580-540 177-135 427-177 580-338 213-225 198-664 487-788 446-191 977 13 1461-45 279-33 539-158 812-225 214-53 428-153 649-135 336 28 653 168 974 270 151 48 290 229 441 180 111-36-71-332 46-338 176-8 360 154 418 316 118 334 36 706 69 1058 21 226 62 450 93 675 39 285 73 571 116 855 35 233-124 734 116 698 507-76 1021-445 1229-900 117-256-420-411-510-676-172-505-334-1049-255-1575 53-359 672-541 626-901-52-405-541-632-858-900-228-193-549-268-766-473-106-101-22-354-162-405-756-276-1558-474-2366-518-884-47-1802-20-2644 248-511 162-929 572-1252 990-459 594-784 1284-1044 1981-148 398-125 839-162 1261-32 359-281 801-46 1080z"/>
 <path class="fil11" d="m12003 2540c464 202 894 313 875 354-20 42-480-1-945-204-465-202-757-488-738-529 19-42 343 176 808 379z"/>
 <path class="fil11" d="m10806 2370c465 203 894 313 875 355-19 41-480-1-945-204-464-203-757-488-738-530 20-41 343 177 808 379z"/>
 <path class="fil11" d="m9560 2322c464 203 894 313 875 354-20 42-480-1-945-203-465-203-757-488-738-530s343 177 808 379z"/>
</svg>
